<svg id="Layer_1" data-name="Layer 1" xmlns="http://www.w3.org/2000/svg" viewBox="0 0 401.87 62.41"><title>saranvana elite logo</title><path d="M261.41,79.63a.4.4,0,0,1-.57,0l-2.27-2.27a.4.4,0,0,1,0-.56l2.27-2.28a.42.42,0,0,1,.57,0l2.27,2.28a.39.39,0,0,1,0,.56Z" transform="translate(-1.13 -19.8)" fill="#e22636"/><path d="M261.22,77.92a.13.13,0,0,1-.18,0l-.76-.75a.13.13,0,0,1,0-.18l.76-.75a.11.11,0,0,1,.18,0L262,77a.13.13,0,0,1,0,.18Z" transform="translate(-1.13 -19.8)" fill="#fff"/><rect x="193.3" y="75.07" width="4.01" height="4.01" rx="0.4" ry="0.4" transform="translate(1.53 140.78) rotate(-44.97)" fill="#e22636"/><path d="M195.4,77.92a.14.14,0,0,1-.19,0l-.75-.75a.13.13,0,0,1,0-.18l.75-.75a.12.12,0,0,1,.19,0l.75.75a.13.13,0,0,1,0,.18Z" transform="translate(-1.13 -19.8)" fill="#fff"/><rect x="146.56" y="75.07" width="4.01" height="4.01" rx="0.4" ry="0.4" transform="translate(-12.11 107.84) rotate(-45.01)" fill="#e22636"/><path d="M148.66,77.92a.14.14,0,0,1-.19,0l-.75-.75a.13.13,0,0,1,0-.18l.75-.75a.12.12,0,0,1,.19,0l.75.75a.13.13,0,0,1,0,.18Z" transform="translate(-1.13 -19.8)" fill="#fff"/><rect x="82.68" y="75.07" width="4.01" height="4.01" rx="0.4" ry="0.4" transform="translate(-30.83 62.62) rotate(-44.98)" fill="#e22636"/><path d="M84.78,77.92a.14.14,0,0,1-.19,0l-.75-.75a.13.13,0,0,1,0-.18l.75-.75a.12.12,0,0,1,.19,0l.75.75a.13.13,0,0,1,0,.18Z" transform="translate(-1.13 -19.8)" fill="#fff"/><path d="M129.12,74.55v5.1a5.47,5.47,0,0,0,.89,0,3,3,0,0,0,2.14-.71,2.67,2.67,0,0,0,.75-2,2.39,2.39,0,0,0-.71-1.85,2.89,2.89,0,0,0-2-.64,5.09,5.09,0,0,0-1,.09m-.9,5.78V73.89a13,13,0,0,1,1.9-.14,4,4,0,0,1,2.83.87,3,3,0,0,1,.9,2.29,3.34,3.34,0,0,1-1,2.56,4.2,4.2,0,0,1-3,.94A13.25,13.25,0,0,1,128.22,80.33Zm-5.79,0h-.85V73.81h1l2.15,3.27A17.72,17.72,0,0,1,126,79.2c-.06-.6-.09-1.49-.09-2.66V73.81h.84v6.54h-.92l-2.13-3.28q-.8-1.25-1.29-2.19.06.95.06,2.67Zm-7.27-3.23a2.92,2.92,0,0,0,.6,1.86,1.9,1.9,0,0,0,1.56.75,1.93,1.93,0,0,0,1.59-.75,3,3,0,0,0,.61-1.93,2.92,2.92,0,0,0-.6-1.86,2,2,0,0,0-3.17,0A3,3,0,0,0,115.16,77.12Zm5.32-.11a3.5,3.5,0,0,1-.89,2.51,3,3,0,0,1-2.29.94,2.88,2.88,0,0,1-2.22-.93,3.32,3.32,0,0,1-.87-2.38,3.49,3.49,0,0,1,.9-2.49,3.18,3.18,0,0,1,4.51,0A3.4,3.4,0,0,1,120.48,77Zm-8.08,3.34-.19-3.56c0-1-.09-1.74-.1-2.14-.23.73-.48,1.49-.77,2.26l-1.25,3.39h-.69c-.81-2.32-1.29-3.71-1.43-4.15s-.29-.93-.44-1.5c0,1.22-.09,2.21-.13,2.95l-.18,2.75h-.85l.45-6.54H108c.81,2.25,1.28,3.57,1.4,3.94s.26.84.41,1.39a20.34,20.34,0,0,1,.68-2.12l1.22-3.21h1.16l.41,6.54Zm-10.73-2.74h2c-.59-1.64-.93-2.65-1-3C102.51,75.12,102.18,76.13,101.67,77.61Zm2.2.7h-2.39l-.69,2h-.94l2.29-6.54h1.11l2.31,6.54h-1ZM98,73.81h.9v6.54H98Zm-5.84.74v5.1a5.47,5.47,0,0,0,.89,0A3,3,0,0,0,95.15,79a2.67,2.67,0,0,0,.75-2,2.39,2.39,0,0,0-.71-1.85,2.89,2.89,0,0,0-2-.64A5.09,5.09,0,0,0,92.12,74.55Zm-.9,5.78V73.89a13,13,0,0,1,1.9-.14,3.94,3.94,0,0,1,2.82.87,3,3,0,0,1,.91,2.29,3.34,3.34,0,0,1-1,2.56,4.2,4.2,0,0,1-3,.94A13.25,13.25,0,0,1,91.22,80.33Z" transform="translate(-1.13 -19.8)" fill="#43525a"/><path d="M175.25,74.55v5.1a5.62,5.62,0,0,0,.9,0,3,3,0,0,0,2.13-.71,2.67,2.67,0,0,0,.75-2,2.38,2.38,0,0,0-.7-1.85,2.92,2.92,0,0,0-2-.64,5.09,5.09,0,0,0-1,.09m-.9,5.78V73.89a13,13,0,0,1,1.9-.14,4,4,0,0,1,2.83.87,3,3,0,0,1,.9,2.29,3.37,3.37,0,0,1-1,2.56,4.24,4.24,0,0,1-3,.94A13.36,13.36,0,0,1,174.35,80.33Zm-4.76,0V73.81h.9V79.6h2.9v.75Zm-6.43-3.23a2.87,2.87,0,0,0,.61,1.86,1.9,1.9,0,0,0,1.56.75,1.93,1.93,0,0,0,1.59-.75,3,3,0,0,0,.6-1.93,2.92,2.92,0,0,0-.59-1.86,2,2,0,0,0-3.18,0A3.06,3.06,0,0,0,163.16,77.12Zm5.32-.11a3.46,3.46,0,0,1-.89,2.51,3,3,0,0,1-2.28.94,2.91,2.91,0,0,1-2.23-.93,3.36,3.36,0,0,1-.86-2.38,3.53,3.53,0,0,1,.89-2.49,3,3,0,0,1,2.28-1,2.91,2.91,0,0,1,2.23.92A3.36,3.36,0,0,1,168.48,77Zm-7.18-.11V80a6.28,6.28,0,0,1-2.12.38,3.45,3.45,0,0,1-2.59-.93,3.24,3.24,0,0,1-.91-2.36,3.2,3.2,0,0,1,1-2.44,3.71,3.71,0,0,1,2.68-1,4.23,4.23,0,0,1,1.72.31l-.22.73a3.6,3.6,0,0,0-1.53-.29,2.71,2.71,0,0,0-2,.7,2.49,2.49,0,0,0-.73,1.89,2.42,2.42,0,0,0,2.6,2.6,2.79,2.79,0,0,0,1.17-.18V77.61h-1.36V76.9Z" transform="translate(-1.13 -19.8)" fill="#43525a"/><path d="M244.29,80.33l-.19-3.56c0-1-.08-1.74-.1-2.14-.22.73-.48,1.48-.76,2.26L242,80.28h-.69c-.81-2.33-1.28-3.71-1.42-4.15s-.29-.94-.44-1.5c-.05,1.22-.09,2.2-.14,3l-.17,2.75h-.86l.46-6.55h1.17c.82,2.26,1.29,3.57,1.41,4s.26.83.41,1.38a22,22,0,0,1,.68-2.12l1.21-3.21h1.17l.41,6.55ZM231.9,73.78h.91V77.6a2.5,2.5,0,0,0,.41,1.56,1.38,1.38,0,0,0,1.17.55,1.47,1.47,0,0,0,1.22-.54A2.51,2.51,0,0,0,236,77.6V73.78h.9v3.76a3.08,3.08,0,0,1-.67,2.15,2.44,2.44,0,0,1-1.91.75,2.3,2.3,0,0,1-1.82-.73,3.2,3.2,0,0,1-.63-2.14Zm-5.79,6.55h-.84V73.78h1l2.15,3.28a20.87,20.87,0,0,1,1.22,2.11,25,25,0,0,1-.1-2.66V73.78h.85v6.55h-.93l-2.12-3.28a23,23,0,0,1-1.29-2.2c0,.63.05,1.52.05,2.67Zm-3.24-6.55h.9v6.55h-.9Zm-3.71,6.55V74.54h-2.07v-.76h5v.76h-2.08v5.79Zm-5.37-2.74h2c-.59-1.64-.93-2.66-1-3C214.64,75.09,214.31,76.1,213.79,77.59Zm2.2.7h-2.38l-.69,2H212l2.3-6.55h1.1l2.31,6.55h-1Zm-8.27,2V73.78h.9v5.79h2.9v.76Zm-4.45-5.83V77a2.68,2.68,0,0,0,.73.08,1.9,1.9,0,0,0,1.23-.37,1.22,1.22,0,0,0,.43-1,1.11,1.11,0,0,0-.41-.94,1.79,1.79,0,0,0-1.15-.33A5,5,0,0,0,203.27,74.5Zm-.9,5.83V73.86a9.73,9.73,0,0,1,1.72-.14,2.79,2.79,0,0,1,1.86.54,1.76,1.76,0,0,1,.62,1.4,1.86,1.86,0,0,1-.72,1.57,3,3,0,0,1-1.87.55,3,3,0,0,1-.71-.06v2.61Z" transform="translate(-1.13 -19.8)" fill="#43525a"/><path d="M291.44,74.52v2.34h.91a1.66,1.66,0,0,0,1.08-.33,1.09,1.09,0,0,0,.4-.89,1.06,1.06,0,0,0-.39-.89,1.74,1.74,0,0,0-1.12-.31,3.41,3.41,0,0,0-.88.08m-.9,5.83V73.89a9.86,9.86,0,0,1,1.71-.14,3,3,0,0,1,1.89.48,1.73,1.73,0,0,1,.26,2.34,1.89,1.89,0,0,1-.92.64,1.66,1.66,0,0,1,1,1.33,12.9,12.9,0,0,0,.53,1.81H294a8.2,8.2,0,0,1-.44-1.55,1.91,1.91,0,0,0-.46-1,1.25,1.25,0,0,0-.87-.28h-.83v2.81Zm-1.42-3.78v.74h-2.63v2.3h2.94v.74h-3.84V73.81h3.69v.75h-2.79v2Zm-6.65,3.78h-1l-2.21-6.54h1l1.23,3.81c.24.74.42,1.35.55,1.83.17-.64.43-1.45.77-2.42l1.15-3.22h1Zm-6.55,0V73.81h.9V79.6h2.89v.75Zm-2.4-6.54h.9v6.54h-.9ZM268.21,80l.24-.75a3,3,0,0,0,1.58.44,1.65,1.65,0,0,0,1-.29,1,1,0,0,0,.37-.8,1,1,0,0,0-.3-.74,2.53,2.53,0,0,0-1-.52,3.43,3.43,0,0,1-1.37-.77,1.52,1.52,0,0,1-.43-1.09,1.6,1.6,0,0,1,.61-1.29,2.41,2.41,0,0,1,1.59-.51,3,3,0,0,1,1.51.33l-.24.73a2.64,2.64,0,0,0-1.3-.32,1.38,1.38,0,0,0-.93.28.85.85,0,0,0-.33.68.9.9,0,0,0,.28.67,3.15,3.15,0,0,0,1.06.55,3.09,3.09,0,0,1,1.33.8,1.64,1.64,0,0,1,.4,1.14,1.74,1.74,0,0,1-.62,1.37,2.65,2.65,0,0,1-1.75.53,3.93,3.93,0,0,1-.95-.12A2.72,2.72,0,0,1,268.21,80Z" transform="translate(-1.13 -19.8)" fill="#43525a"/><path d="M59.51,67h258" transform="translate(-1.13 -19.8)" fill="none" stroke="#d1aa67" stroke-miterlimit="22.93" stroke-width="0.95"/><path d="M304.42,35.82a10,10,0,0,0,2.26,2.35,3.87,3.87,0,0,0,2.22.78,2.31,2.31,0,0,0,1.7-.67,2.34,2.34,0,0,0,.66-1.7,2.47,2.47,0,0,0-.57-1.75,6.49,6.49,0,0,0-2.59-1.28,8.14,8.14,0,0,1-3.93-2.35,6.3,6.3,0,0,1-1.15-4,7.81,7.81,0,0,1,1.82-5.35,5.94,5.94,0,0,1,4.7-2.07,8.57,8.57,0,0,1,3,.51,8.94,8.94,0,0,1,2.65,1.54l-1.61,4.47a7,7,0,0,0-1.8-1.36,4.12,4.12,0,0,0-1.82-.46,2.13,2.13,0,0,0-1.51.54,1.79,1.79,0,0,0-.58,1.38,1.86,1.86,0,0,0,.51,1.37,5.07,5.07,0,0,0,2,1l.23.08c2.1.69,3.48,1.44,4.14,2.27a5.74,5.74,0,0,1,1,2,8.86,8.86,0,0,1,.35,2.61,8.42,8.42,0,0,1-2,5.85,6.72,6.72,0,0,1-5.26,2.21,7.94,7.94,0,0,1-3.6-.81,10.26,10.26,0,0,1-3.11-2.55ZM288.61,43.2V20.34h11.57v5h-6.55v4h6.17v4.89h-6.17v3.87h6.55V43.2Zm-12.1-12.05h.95a3.56,3.56,0,0,0,2.43-.69,2.76,2.76,0,0,0,.77-2.15,3.42,3.42,0,0,0-.72-2.45,3.3,3.3,0,0,0-2.4-.72h-1ZM271.68,43.2V20.34h5.39a18.17,18.17,0,0,1,4.4.36,5.32,5.32,0,0,1,2.14,1.17,6.16,6.16,0,0,1,1.57,2.39,8.92,8.92,0,0,1,.55,3.2,7.81,7.81,0,0,1-1.08,4.32A5.14,5.14,0,0,1,281.5,34l5.15,9.22h-5.81l-4.33-9v9Zm-13.31-4.67a4.22,4.22,0,0,0,3.54-1.9,7.94,7.94,0,0,0,1.4-4.81A7.82,7.82,0,0,0,261.89,27a4.21,4.21,0,0,0-7.06,0,7.93,7.93,0,0,0-1.4,4.8,8,8,0,0,0,1.38,4.82A4.23,4.23,0,0,0,258.37,38.53Zm10.09-6.71a13.9,13.9,0,0,1-.75,4.62,12.05,12.05,0,0,1-2.18,3.86,10.5,10.5,0,0,1-3.3,2.6,8.66,8.66,0,0,1-7.73,0,10.21,10.21,0,0,1-3.25-2.6A11.93,11.93,0,0,1,249,36.42a14.33,14.33,0,0,1,0-9.21,12,12,0,0,1,2.21-3.87,10.21,10.21,0,0,1,3.25-2.6,8.71,8.71,0,0,1,7.75,0,10.31,10.31,0,0,1,3.28,2.6,12,12,0,0,1,2.17,3.86A13.78,13.78,0,0,1,268.46,31.82ZM237.65,43.2V25.75h-4.23V20.34H247v5.41H242.8V43.2Zm-17.22-7.38a10,10,0,0,0,2.26,2.35,3.84,3.84,0,0,0,2.22.78,2.31,2.31,0,0,0,1.7-.67,2.34,2.34,0,0,0,.66-1.7,2.47,2.47,0,0,0-.57-1.75,6.57,6.57,0,0,0-2.59-1.28,8.14,8.14,0,0,1-3.93-2.35,6.3,6.3,0,0,1-1.15-4,7.81,7.81,0,0,1,1.82-5.35,5.94,5.94,0,0,1,4.7-2.07,8.57,8.57,0,0,1,3,.51,8.94,8.94,0,0,1,2.65,1.54l-1.61,4.47a7,7,0,0,0-1.8-1.36,4.12,4.12,0,0,0-1.82-.46,2.13,2.13,0,0,0-1.51.54,1.79,1.79,0,0,0-.58,1.38,1.89,1.89,0,0,0,.5,1.37,5.13,5.13,0,0,0,2,1l.23.08c2.1.69,3.48,1.44,4.14,2.27a5.74,5.74,0,0,1,1,2,8.86,8.86,0,0,1,.35,2.61,8.42,8.42,0,0,1-2,5.85,6.72,6.72,0,0,1-5.26,2.21,7.94,7.94,0,0,1-3.6-.81,10.26,10.26,0,0,1-3.11-2.55ZM190,43.2l6.52-22.86H203l6.52,22.86H204.4l-1-4.09h-7.31l-1,4.09Zm7.22-8.53h5.12l-1.93-7.55c-.05-.23-.14-.6-.24-1.11s-.24-1.16-.4-2c-.11.56-.22,1.1-.33,1.61s-.22,1-.33,1.46Zm-27.5,8.53V20.34h5l7.14,11.76c.13.24.36.72.67,1.45s.66,1.58,1,2.58c-.1-1-.18-1.79-.23-2.53s-.07-1.4-.07-2V20.34h4.94V43.2h-4.94l-7.13-11.8a12.73,12.73,0,0,1-.69-1.44c-.32-.73-.66-1.58-1-2.56.1,1,.18,1.8.23,2.55s.07,1.39.07,2V43.2Zm-21.28,0L155,20.34h6.45L168,43.2h-5.12l-1-4.09h-7.31l-1,4.09Zm7.21-8.53h5.12l-1.93-7.55c-.05-.23-.14-.6-.24-1.11s-.24-1.16-.4-2c-.11.56-.22,1.1-.33,1.61s-.21,1-.32,1.46Zm-17.9,8.53-7.92-22.86h5.47l3.77,12.79c0,.13.11.46.22,1s.25,1.21.42,2.08c.13-.7.26-1.33.38-1.89s.22-.95.27-1.17l3.76-12.79h5.46L141.7,43.2Zm-26.24,0,6.52-22.86h6.45L131,43.2h-5.12l-1-4.09h-7.31l-1,4.09Zm7.22-8.53h5.12L122,27.12c0-.23-.14-.6-.24-1.11s-.24-1.16-.4-2c-.11.56-.22,1.1-.33,1.61s-.22,1-.33,1.46Zm-17.1-3.52h1a3.56,3.56,0,0,0,2.43-.69,2.76,2.76,0,0,0,.77-2.15,3.46,3.46,0,0,0-.71-2.45,3.32,3.32,0,0,0-2.41-.72h-1ZM96.83,43.2V20.34h5.39a18.17,18.17,0,0,1,4.4.36,5.36,5.36,0,0,1,2.15,1.17,6.25,6.25,0,0,1,1.56,2.39,8.92,8.92,0,0,1,.55,3.2,7.81,7.81,0,0,1-1.08,4.32,5.14,5.14,0,0,1-3.15,2.2l5.15,9.22H106l-4.33-9v9Zm-21.29,0,6.52-22.86h6.45L95,43.2H89.91l-1-4.09H81.65l-1,4.09Zm7.22-8.53h5.11L86,27.12q-.09-.35-.24-1.11c-.11-.51-.24-1.16-.4-2-.11.56-.22,1.1-.33,1.61s-.22,1-.33,1.46Zm-19.5,1.15a10.23,10.23,0,0,0,2.26,2.35,3.87,3.87,0,0,0,2.22.78,2.31,2.31,0,0,0,1.7-.67,2.34,2.34,0,0,0,.66-1.7,2.47,2.47,0,0,0-.57-1.75,6.49,6.49,0,0,0-2.59-1.28A8.14,8.14,0,0,1,63,31.2a6.3,6.3,0,0,1-1.15-4,7.81,7.81,0,0,1,1.82-5.35,5.94,5.94,0,0,1,4.7-2.07,8.57,8.57,0,0,1,3,.51A8.94,8.94,0,0,1,74,21.85l-1.61,4.47A7,7,0,0,0,70.58,25a4.12,4.12,0,0,0-1.82-.46,2.13,2.13,0,0,0-1.51.54,1.79,1.79,0,0,0-.58,1.38,1.86,1.86,0,0,0,.51,1.37,5.07,5.07,0,0,0,2,1l.23.08c2.1.69,3.48,1.44,4.14,2.27a5.74,5.74,0,0,1,1,2,8.86,8.86,0,0,1,.35,2.61,8.42,8.42,0,0,1-2,5.85,6.71,6.71,0,0,1-5.26,2.21,7.94,7.94,0,0,1-3.6-.81,10.26,10.26,0,0,1-3.11-2.55Z" transform="translate(-1.13 -19.8)" fill="#c3161c"/><path d="M318.3,21.68h.36a.59.59,0,0,0,.35-.07.25.25,0,0,0,.1-.21.3.3,0,0,0-.05-.15.25.25,0,0,0-.13-.09.85.85,0,0,0-.29,0h-.34Zm-.3,1h0V20.88h.63a1.35,1.35,0,0,1,.47.05.38.38,0,0,1,.23.18.44.44,0,0,1,.09.27.52.52,0,0,1-.14.35.64.64,0,0,1-.39.17.48.48,0,0,1,.16.09,1.87,1.87,0,0,1,.27.37l.23.36h-.37l-.16-.29a1.51,1.51,0,0,0-.31-.43.38.38,0,0,0-.24-.06h-.17v.78Zm.75-2.38h0a1.5,1.5,0,0,0-.7.19,1.37,1.37,0,0,0-.54.53,1.4,1.4,0,0,0-.19.71,1.38,1.38,0,0,0,.19.71A1.29,1.29,0,0,0,318,23a1.43,1.43,0,0,0,.71.19,1.4,1.4,0,0,0,.71-.19,1.23,1.23,0,0,0,.53-.53,1.38,1.38,0,0,0,.19-.71,1.4,1.4,0,0,0-.19-.71,1.31,1.31,0,0,0-.54-.53A1.5,1.5,0,0,0,318.75,20.34Zm0-.28a1.77,1.77,0,0,1,.85.22,1.68,1.68,0,0,1,.64.63,1.79,1.79,0,0,1,0,1.72,1.62,1.62,0,0,1-.64.63,1.71,1.71,0,0,1-.85.22,1.74,1.74,0,0,1-.85-.22,1.59,1.59,0,0,1-.63-.63,1.72,1.72,0,0,1,0-1.72,1.62,1.62,0,0,1,.64-.63A1.73,1.73,0,0,1,318.75,20.06Z" transform="translate(-1.13 -19.8)" fill="#c3161c"/><path d="M270.79,60.92l-.5,0a5,5,0,0,1-4.49-5.52,6,6,0,0,1,3.33-4.92,5.85,5.85,0,0,1,5.6.12,15.35,15.35,0,0,1,4.17,4.5c.2.3.41.58.61.86a6.81,6.81,0,0,0,3.9,2.74,6.16,6.16,0,0,0,6.48-2.13c.65-.74,1.3-1.42,1.93-2a6.39,6.39,0,0,1,4.09-2.2,3.64,3.64,0,0,1,3.12,1.3,4.05,4.05,0,0,1-.43,5.25,3.46,3.46,0,0,1-3.83.6,2.63,2.63,0,0,1-1.54-1.85,2.52,2.52,0,0,1,.77-2.46,2.15,2.15,0,0,1,2.15-.41,1.87,1.87,0,0,1,1.27,1.66,1.77,1.77,0,0,1-1,1.71,1.57,1.57,0,0,1-1.92-.63,1.1,1.1,0,0,1,.16-1.19.85.85,0,0,1,.94-.31.23.23,0,0,1,.14.29.23.23,0,0,1-.29.15.41.41,0,0,0-.44.16.63.63,0,0,0-.1.67,1.1,1.1,0,0,0,1.31.44,1.32,1.32,0,0,0,.7-1.26,1.39,1.39,0,0,0-1-1.25,1.69,1.69,0,0,0-1.71.32,2.08,2.08,0,0,0-.6,2A2.18,2.18,0,0,0,295,59.07a3,3,0,0,0,3.3-.52,3.57,3.57,0,0,0,.39-4.62,3.16,3.16,0,0,0-2.73-1.14,6.08,6.08,0,0,0-3.8,2.07c-.62.6-1.26,1.27-1.9,2a6.62,6.62,0,0,1-6.95,2.27,7.39,7.39,0,0,1-4.16-2.92c-.2-.27-.4-.56-.61-.86a15.06,15.06,0,0,0-4-4.37,5.41,5.41,0,0,0-5.17-.11,5.58,5.58,0,0,0-3.07,4.55,4.53,4.53,0,0,0,4.07,5A3.64,3.64,0,0,0,274.45,58a3.48,3.48,0,0,0-.26-2.63,2.93,2.93,0,0,0-1.95-1.4,2.19,2.19,0,0,0-1.76.31,1.8,1.8,0,0,0-.79,1.93A1.55,1.55,0,0,0,271,57.34a.83.83,0,0,0,.62-.12.52.52,0,0,0,.18-.37c0-.36-.35-.48-.39-.49a.24.24,0,0,1-.16-.29.24.24,0,0,1,.29-.16,1,1,0,0,1,.71,1,.88.88,0,0,1-.34.69,1.25,1.25,0,0,1-1,.22,2,2,0,0,1-1.65-1.51,2.27,2.27,0,0,1,1-2.43,2.7,2.7,0,0,1,2.13-.39,3.39,3.39,0,0,1,2.25,1.63,3.87,3.87,0,0,1,.31,3,4,4,0,0,1-4.11,2.84" transform="translate(-1.13 -19.8)" fill="#c3161c"/><path d="M287.7,58.77a.22.22,0,0,1-.2-.12.23.23,0,0,1,.09-.32,4.83,4.83,0,0,0,2.17-3.77A4,4,0,0,0,287,50.28a4.23,4.23,0,0,0-3.72.58,3.56,3.56,0,0,0-1.48,2.91,3,3,0,0,0,1.66,2.92,3.05,3.05,0,0,0,2.91-.17,1.89,1.89,0,0,0,.7-2,1.42,1.42,0,0,0-1.22-1.15,1.12,1.12,0,0,0-1.06.39,1,1,0,0,0-.14.94.68.68,0,0,0,.59.41.23.23,0,0,1,.2.25.24.24,0,0,1-.26.21,1.16,1.16,0,0,1-1-.69,1.45,1.45,0,0,1,.2-1.4,1.57,1.57,0,0,1,1.48-.57,1.88,1.88,0,0,1,1.62,1.49,2.39,2.39,0,0,1-.89,2.51,3.52,3.52,0,0,1-3.37.21,3.45,3.45,0,0,1-1.92-3.34A4,4,0,0,1,283,50.49a4.67,4.67,0,0,1,4.12-.65,4.4,4.4,0,0,1,3.11,4.76,5.22,5.22,0,0,1-2.41,4.14.23.23,0,0,1-.11,0" transform="translate(-1.13 -19.8)" fill="#c3161c"/><path d="M281.32,58.26a.27.27,0,0,1-.12,0,10,10,0,0,0-2.31-.94l-.85-.21c-.76-.17-1.41-.31-1.57-1a.87.87,0,0,1,.28-.95.83.83,0,0,1,.91,0,1,1,0,0,1,.35,1.09.24.24,0,0,1-.27.18.24.24,0,0,1-.18-.27.56.56,0,0,0-.15-.61.35.35,0,0,0-.39,0,.41.41,0,0,0-.11.45c.09.36.49.47,1.23.63.26.06.56.13.88.22a11.12,11.12,0,0,1,2.42,1,.24.24,0,0,1,.08.32.26.26,0,0,1-.2.11" transform="translate(-1.13 -19.8)" fill="#c3161c"/><path d="M277.67,60.1h-.05a1.08,1.08,0,0,1-1.09-1,1.65,1.65,0,0,1,1.38-1.68,6,6,0,0,1,3.66.49.22.22,0,0,1,.11.3.23.23,0,0,1-.31.11,5.72,5.72,0,0,0-3.34-.46c-.78.21-1.09.76-1,1.18a.62.62,0,0,0,.65.58.41.41,0,0,0,.47-.3.41.41,0,0,0-.21-.47.25.25,0,0,1-.11-.31.23.23,0,0,1,.31-.11.89.89,0,0,1-.43,1.68" transform="translate(-1.13 -19.8)" fill="#c3161c"/><path d="M291.13,60.09a1.28,1.28,0,0,1-1.07-.58,1.33,1.33,0,0,1,.24-1.67c1.09-1.18,3.23-.25,3.32-.21a.23.23,0,1,1-.19.42s-1.93-.84-2.78.1a.86.86,0,0,0-.2,1.11.82.82,0,0,0,.94.33c.35-.12.41-.36.36-.55a.28.28,0,0,0-.34-.21.24.24,0,0,1-.28-.16.23.23,0,0,1,.15-.29.74.74,0,0,1,.91.52.91.91,0,0,1-.66,1.13,1.39,1.39,0,0,1-.4.06" transform="translate(-1.13 -19.8)" fill="#c3161c"/><path d="M291.45,52.2h0a.25.25,0,0,1,.15.06.42.42,0,0,0,.49.07.4.4,0,0,0,.12-.47.37.37,0,0,0-.37-.31c-.2,0-.42.2-.49.68l.1,0m.15,3.1a.23.23,0,0,1-.21-.15,7,7,0,0,1-.51-2.9c.1-.81.54-1.14.92-1.16a.84.84,0,0,1,.86.65.82.82,0,0,1-.33,1,.85.85,0,0,1-1-.09,7.08,7.08,0,0,0,.5,2.35.25.25,0,0,1-.13.3Z" transform="translate(-1.13 -19.8)" fill="#c3161c"/><path d="M106.19,60.92l.5,0a5,5,0,0,0,4.49-5.52,6,6,0,0,0-3.32-4.92,5.87,5.87,0,0,0-5.61.12,15.45,15.45,0,0,0-4.16,4.5l-.61.86a6.86,6.86,0,0,1-3.91,2.74,6.16,6.16,0,0,1-6.48-2.13c-.65-.74-1.3-1.42-1.92-2a6.44,6.44,0,0,0-4.1-2.2A3.62,3.62,0,0,0,78,53.63a4,4,0,0,0,.43,5.25,3.45,3.45,0,0,0,3.82.6,2.63,2.63,0,0,0,1.54-1.85A2.52,2.52,0,0,0,83,55.17a2.17,2.17,0,0,0-2.16-.41,1.87,1.87,0,0,0-1.26,1.66,1.75,1.75,0,0,0,1,1.71,1.56,1.56,0,0,0,1.91-.63,1.11,1.11,0,0,0-.15-1.19.86.86,0,0,0-.94-.31.23.23,0,0,0-.15.29.23.23,0,0,0,.29.15.4.4,0,0,1,.44.16.63.63,0,0,1,.1.67,1.08,1.08,0,0,1-1.3.44,1.29,1.29,0,0,1-.7-1.26,1.38,1.38,0,0,1,1-1.25,1.69,1.69,0,0,1,1.71.32,2.05,2.05,0,0,1,.6,2A2.16,2.16,0,0,1,82,59.07a3,3,0,0,1-3.3-.52,3.56,3.56,0,0,1-.4-4.62A3.17,3.17,0,0,1,81,52.79a6.11,6.11,0,0,1,3.81,2.07c.61.6,1.25,1.27,1.89,2a6.62,6.62,0,0,0,7,2.27,7.45,7.45,0,0,0,4.17-2.92l.61-.86a14.93,14.93,0,0,1,4-4.37,5.41,5.41,0,0,1,5.17-.11,5.59,5.59,0,0,1,3.06,4.55,4.53,4.53,0,0,1-4.06,5c-1.57.14-3.59-.42-4.13-2.48a3.48,3.48,0,0,1,.26-2.63,3,3,0,0,1,1.95-1.4,2.19,2.19,0,0,1,1.76.31,1.82,1.82,0,0,1,.8,1.93A1.57,1.57,0,0,1,106,57.34a.84.84,0,0,1-.63-.12.55.55,0,0,1-.17-.37.5.5,0,0,1,.38-.49.23.23,0,0,0,.16-.29.24.24,0,0,0-.28-.16,1,1,0,0,0-.72,1,.94.94,0,0,0,.34.69,1.25,1.25,0,0,0,1,.22,2,2,0,0,0,1.65-1.51,2.26,2.26,0,0,0-1-2.43,2.67,2.67,0,0,0-2.12-.39,3.37,3.37,0,0,0-2.25,1.63,3.87,3.87,0,0,0-.31,3,4,4,0,0,0,4.1,2.84" transform="translate(-1.13 -19.8)" fill="#c3161c"/><path d="M89.29,58.77a.24.24,0,0,0,.11-.44,4.8,4.8,0,0,1-2.17-3.77A4,4,0,0,1,90,50.28a4.26,4.26,0,0,1,3.73.58,3.58,3.58,0,0,1,1.47,2.91,3,3,0,0,1-1.65,2.92,3.07,3.07,0,0,1-2.92-.17,1.93,1.93,0,0,1-.7-2,1.43,1.43,0,0,1,1.23-1.15,1.11,1.11,0,0,1,1,.39,1,1,0,0,1,.14.94.68.68,0,0,1-.58.41.22.22,0,0,0-.2.25.23.23,0,0,0,.25.21,1.16,1.16,0,0,0,1-.69,1.45,1.45,0,0,0-.2-1.4,1.56,1.56,0,0,0-1.48-.57,1.9,1.9,0,0,0-1.62,1.49,2.39,2.39,0,0,0,.89,2.51,3.54,3.54,0,0,0,3.38.21,3.46,3.46,0,0,0,1.91-3.34A4,4,0,0,0,94,50.49a4.7,4.7,0,0,0-4.13-.65,4.4,4.4,0,0,0-3.1,4.76,5.2,5.2,0,0,0,2.4,4.14.24.24,0,0,0,.12,0" transform="translate(-1.13 -19.8)" fill="#c3161c"/><path d="M95.66,58.26a.21.21,0,0,0,.12,0,10.22,10.22,0,0,1,2.32-.94l.84-.21c.76-.17,1.42-.31,1.58-1a.86.86,0,0,0-.29-.95.83.83,0,0,0-.91,0A1,1,0,0,0,99,56.24a.24.24,0,0,0,.27.18.24.24,0,0,0,.18-.27.56.56,0,0,1,.15-.61.35.35,0,0,1,.39,0,.39.39,0,0,1,.11.45c-.09.36-.48.47-1.23.63-.26.06-.56.13-.87.22a11.08,11.08,0,0,0-2.43,1,.24.24,0,0,0-.07.32.23.23,0,0,0,.19.11" transform="translate(-1.13 -19.8)" fill="#c3161c"/><path d="M99.31,60.1h0a1.1,1.1,0,0,0,1.1-1,1.66,1.66,0,0,0-1.38-1.68,6.07,6.07,0,0,0-3.67.49.23.23,0,0,0-.11.3.23.23,0,0,0,.31.11A5.76,5.76,0,0,1,99,57.85c.78.21,1.08.76,1,1.18a.63.63,0,0,1-.66.58.39.39,0,0,1-.46-.3.4.4,0,0,1,.2-.47.23.23,0,0,0,.11-.31.23.23,0,0,0-.31-.11.89.89,0,0,0,.43,1.68" transform="translate(-1.13 -19.8)" fill="#c3161c"/><path d="M85.86,60.09a1.26,1.26,0,0,0,1.06-.58,1.33,1.33,0,0,0-.24-1.67c-1.08-1.18-3.23-.25-3.32-.21a.23.23,0,1,0,.19.42s1.93-.84,2.79.1a.87.87,0,0,1,.19,1.11.81.81,0,0,1-.93.33c-.36-.12-.42-.36-.36-.55a.26.26,0,0,1,.33-.21.25.25,0,0,0,.29-.16.24.24,0,0,0-.16-.29.73.73,0,0,0-.9.52A.89.89,0,0,0,85.45,60a1.45,1.45,0,0,0,.41.06" transform="translate(-1.13 -19.8)" fill="#c3161c"/><path d="M85.63,52.23h0c-.07-.48-.29-.67-.48-.68a.38.38,0,0,0-.38.31.39.39,0,0,0,.13.47.4.4,0,0,0,.48-.07.28.28,0,0,1,.15-.06.17.17,0,0,1,.1,0m-.33,3.05a.23.23,0,0,1-.13-.3,6.92,6.92,0,0,0,.49-2.35.85.85,0,0,1-1,.09.91.91,0,0,1,.54-1.63c.38,0,.81.35.91,1.16a7.18,7.18,0,0,1-.5,2.9.23.23,0,0,1-.21.15Z" transform="translate(-1.13 -19.8)" fill="#c3161c"/><path d="M253.75,56.37H251.8c-.43,0-.65.2-.65.61a.79.79,0,0,0,.33.65,1.52,1.52,0,0,0,.83.25,1.41,1.41,0,0,0,1.08-.46,1.31,1.31,0,0,0,.36-1.05m0-1.85v-.89h-.95v.89Zm5.51,2.41a2.79,2.79,0,0,1-.84,2.15,2.73,2.73,0,0,1-1.93.67h-.43l-.32-.1V57.74a2,2,0,0,0,.54.1c.55,0,.83-.24.83-.71a.68.68,0,0,0-.78-.76h-.59V57a2.32,2.32,0,0,1-.93,1.95A4.4,4.4,0,0,1,250,59a2.24,2.24,0,0,1-.95-1.88,2.32,2.32,0,0,1,1.69-2.55v-2.7h7.35v1.81h-2.38v.89h.75C258.34,54.52,259.26,55.33,259.26,56.93Zm-21.87.15c0-.49-.2-.73-.61-.73s-.66.26-.66.79a.85.85,0,0,0,.18.48.58.58,0,0,0,.43.18.53.53,0,0,0,.44-.22A1,1,0,0,0,237.39,57.08Zm5.17-.46a2.72,2.72,0,0,0-.54-1.68,2.67,2.67,0,0,0-.49,1.7c0,.8.16,1.2.49,1.2.15,0,.28-.14.4-.42A2.59,2.59,0,0,0,242.56,56.62Zm5.78-.65a3.87,3.87,0,0,1-.89,2.57,3.33,3.33,0,0,1-1.95,1.21l-.91-1.61a2.1,2.1,0,0,0,1.71-2.2,2.59,2.59,0,0,0-.6-1.71,1.7,1.7,0,0,0-1.33-.62,1.39,1.39,0,0,0-.68.16,4.25,4.25,0,0,1,.82,2.73,3.3,3.3,0,0,1-.77,2.29,2.17,2.17,0,0,1-3.49,0,3.26,3.26,0,0,1-.71-2.09,4.74,4.74,0,0,1,.83-2.89,3,3,0,0,0-1.33-.24,6.17,6.17,0,0,0-1,.08,4.11,4.11,0,0,0-.91.26,1.63,1.63,0,0,0-1.09,1,1,1,0,0,1,.28-.14,2.53,2.53,0,0,1,.84-.12,2.08,2.08,0,0,1,1.56.68,2.38,2.38,0,0,1,.64,1.72,2.56,2.56,0,0,1-.75,1.89,2.68,2.68,0,0,1-2,.74q-2.8,0-2.8-3.54a4.1,4.1,0,0,1,1.23-3,5.62,5.62,0,0,1,4.16-1.44,5,5,0,0,1,2.86.68,3,3,0,0,1,.95-.46,4.43,4.43,0,0,1,1.28-.16,3.81,3.81,0,0,1,2.87,1.17A4.31,4.31,0,0,1,248.34,56ZM220.18,57a1,1,0,0,0-.19-.57.67.67,0,0,0-.55-.25.82.82,0,0,0-.54.24.76.76,0,0,0-.25.58.79.79,0,0,0,.79.81C219.93,57.84,220.18,57.57,220.18,57Zm12.42,2.48h-2V51.35a1.52,1.52,0,0,0-.36-1.05,1.22,1.22,0,0,0-1-.41,1,1,0,0,0-1.16,1.18q0,.75.72.75h1.23v1.81h-1.55v5.84h-2V53.63h-.75a.75.75,0,0,0-.64.47,2,2,0,0,0-.26,1v4.39h-2V55.1a1.67,1.67,0,0,0-.53-1.27,1.88,1.88,0,0,0-1.34-.5,3,3,0,0,0-1.39.31,1.27,1.27,0,0,0-.74.92l.35-.12a2.39,2.39,0,0,1,2.22.76,2.75,2.75,0,0,1,.61,1.83,2.56,2.56,0,0,1-.75,1.86,2.49,2.49,0,0,1-1.85.76,2.61,2.61,0,0,1-2.14-1,4.08,4.08,0,0,1-.8-2.59,4.59,4.59,0,0,1,1-3.14A4.3,4.3,0,0,1,221,51.62c1.41,0,2.35.31,2.81.94,0-.14.23-.29.55-.47a2.21,2.21,0,0,1,1.07-.27h.94a1.91,1.91,0,0,1-.28-1,2.47,2.47,0,0,1,.86-1.83,3.33,3.33,0,0,1,2.36-.81,3.4,3.4,0,0,1,2.31.76,3,3,0,0,1,1,2.39Zm-16.66-5.84h-.73v5.78h-2V53.67h-1.91v5.78h-1.89V51.86h6.52Zm-9.68,1.85c0-1.39-.51-2.09-1.55-2.09a1,1,0,0,0-.65.22.68.68,0,0,0-.32.54v3.45h1.09C205.78,57.64,206.26,56.94,206.26,55.52Zm1.89.08a4.58,4.58,0,0,1-.8,2.76,2.58,2.58,0,0,1-2.2,1.09h-7.1V51.84h1.87v5.8h1.79V54.05a2.11,2.11,0,0,1,.82-1.71,3.34,3.34,0,0,1,2.18-.68,3.21,3.21,0,0,1,2.47.94A4.18,4.18,0,0,1,208.15,55.6ZM188,56.37h-2c-.43,0-.65.2-.65.61a.79.79,0,0,0,.33.65,1.52,1.52,0,0,0,.83.25,1.4,1.4,0,0,0,1.08-.46A1.31,1.31,0,0,0,188,56.37Zm0-1.85v-.89h-1v.89Zm5.51,2.41a2.82,2.82,0,0,1-.83,2.15,2.77,2.77,0,0,1-1.93.67h-.44l-.32-.1V57.74a2.16,2.16,0,0,0,.54.1c.56,0,.83-.24.83-.71a.67.67,0,0,0-.77-.76H190V57a2.34,2.34,0,0,1-.92,1.95,3.89,3.89,0,0,1-2.42.71,3.84,3.84,0,0,1-2.36-.7,2.22,2.22,0,0,1-1-1.88A2.33,2.33,0,0,1,185,54.52v-2.7h7.36v1.81H190v.89h.76C192.58,54.52,193.5,55.33,193.5,56.93Zm-21.87.15c0-.49-.2-.73-.61-.73s-.66.26-.66.79a.85.85,0,0,0,.18.48.6.6,0,0,0,.44.18.54.54,0,0,0,.44-.22A.9.9,0,0,0,171.63,57.08Zm5.17-.46a2.78,2.78,0,0,0-.53-1.68,2.61,2.61,0,0,0-.5,1.7c0,.8.16,1.2.5,1.2q.21,0,.39-.42A2.33,2.33,0,0,0,176.8,56.62Zm5.79-.65a3.87,3.87,0,0,1-.9,2.57,3.33,3.33,0,0,1-1.95,1.21l-.91-1.61a2.1,2.1,0,0,0,1.71-2.2,2.59,2.59,0,0,0-.6-1.71,1.7,1.7,0,0,0-1.33-.62,1.33,1.33,0,0,0-.67.16,4.31,4.31,0,0,1,.81,2.73,3.3,3.3,0,0,1-.76,2.29,2.23,2.23,0,0,1-1.7.86,2.18,2.18,0,0,1-1.79-.9,3.22,3.22,0,0,1-.72-2.09,4.68,4.68,0,0,1,.84-2.89,3.06,3.06,0,0,0-1.34-.24,6.17,6.17,0,0,0-1,.08,4,4,0,0,0-.9.26,1.62,1.62,0,0,0-1.1,1,1,1,0,0,1,.28-.14,2.57,2.57,0,0,1,.84-.12,2.05,2.05,0,0,1,1.56.68,2.38,2.38,0,0,1,.64,1.72,2.56,2.56,0,0,1-.75,1.89,2.66,2.66,0,0,1-2,.74q-2.79,0-2.79-3.54a4.1,4.1,0,0,1,1.23-3,5.6,5.6,0,0,1,4.15-1.44,5,5,0,0,1,2.87.68,2.94,2.94,0,0,1,.94-.46,4.43,4.43,0,0,1,1.28-.16,3.78,3.78,0,0,1,2.87,1.17A4.31,4.31,0,0,1,182.59,56Zm-15.25,2.59a3.65,3.65,0,0,1-1.29,2.9,4.3,4.3,0,0,1-2.93,1H160c-.64,0-1,.21-1,.62v1h-2V62.93a2.21,2.21,0,0,1,.88-1.79,2.62,2.62,0,0,1,1.63-.59h3.18a3.19,3.19,0,0,0,1.88-.55,1.87,1.87,0,0,0,.45-2.54,1,1,0,0,0-.92-.45q-.93,0-.93,1.35v1.13h-2V53.63h-1.63v5.86h-2V51.82h8.49v1.81h-2.84v1.71c.14-.21.5-.32,1.07-.32a2.74,2.74,0,0,1,2.19,1A3.81,3.81,0,0,1,167.34,58.56Zm-19.78-2.19h-1.95c-.43,0-.65.2-.65.61a.79.79,0,0,0,.33.65,1.52,1.52,0,0,0,.83.25,1.4,1.4,0,0,0,1.08-.46A1.31,1.31,0,0,0,147.56,56.37Zm0-1.85v-.89h-.95v.89Zm5.51,2.41a2.79,2.79,0,0,1-.84,2.15,2.72,2.72,0,0,1-1.92.67h-.44l-.32-.1V57.74a2.07,2.07,0,0,0,.54.1c.55,0,.83-.24.83-.71a.68.68,0,0,0-.77-.76h-.6V57a2.34,2.34,0,0,1-.92,1.95,3.91,3.91,0,0,1-2.42.71,3.84,3.84,0,0,1-2.36-.7,2.22,2.22,0,0,1-1-1.88,2.32,2.32,0,0,1,1.69-2.55v-2.7h7.36v1.81h-2.39v.89h.76C152.15,54.52,153.07,55.33,153.07,56.93Zm-11.21,2.52h-5.57V57.7a.72.72,0,0,0,.54-.25,1,1,0,0,0,.28-.57.76.76,0,0,0-.24-.56,1,1,0,0,0-.56-.23c-.45,0-.67.22-.67.64v2.72h-2V53.59h-1.73v5.86h-1.93V51.82h8.69v1.77h-3v1a2.5,2.5,0,0,1,1.15-.28,2.31,2.31,0,0,1,1.64.64,2.07,2.07,0,0,1,.66,1.56,2.25,2.25,0,0,1-.33,1.22h1.07V51.82h2ZM137.7,49.06a1.11,1.11,0,0,1-.43.88,1.51,1.51,0,0,1-1,.37,1.37,1.37,0,0,1-.94-.36,1.15,1.15,0,0,1-.41-.89,1.19,1.19,0,0,1,.42-.92,1.38,1.38,0,0,1,.95-.38,1.49,1.49,0,0,1,1,.38,1.53,1.53,0,0,1,.31.41A1.07,1.07,0,0,1,137.7,49.06Zm-14.17,7.35h-2.4c-.43,0-.64.17-.64.51,0,.59.49.88,1.47.88s1.57-.37,1.57-1.11Zm0-1.85v-.91H122.3v.91Zm5.31,3.28a3.82,3.82,0,0,1-1,2.83,3.64,3.64,0,0,1-2.69,1h-4.52c-.59,0-.88.3-.88.91v1h-2V62.43a2.57,2.57,0,0,1,.62-1.93,2.84,2.84,0,0,1,2-.61h5a1.38,1.38,0,0,0,1.15-.59A2.08,2.08,0,0,0,127,58a1.85,1.85,0,0,0-.32-1.11,1,1,0,0,0-.85-.44h-.34a3.67,3.67,0,0,1-.23,1.37,2.53,2.53,0,0,1-.77,1,3.28,3.28,0,0,1-1,.55,4.91,4.91,0,0,1-4-.56,2.51,2.51,0,0,1-.93-2.05,2.29,2.29,0,0,1,.6-1.65,1.8,1.8,0,0,1,1.25-.52V51.84h7.29v1.81h-2.2v.91C127.72,54.56,128.84,55.66,128.84,57.84Z" transform="translate(-1.13 -19.8)" fill="#00adee"/><path d="M48.4,78.88h0V23.14H4.47V78.88ZM1.13,82.21V19.8H51.74V82.21Z" transform="translate(-1.13 -19.8)" fill="#c3161c"/><path d="M28.06,43.7c-2.13,1.17-3.78,3.21-3.47,5.81a47.8,47.8,0,0,1,.74,5.34c0,3.87-1.83,6.74-7.43,7.86l-1,.2.82-.66c2.43-2,4.3-3.55,4.13-6.86-.08-1.53-.56-3-.63-4.66a6.19,6.19,0,0,1,2-5.27,10.9,10.9,0,0,1,6.89-2.76,21.92,21.92,0,0,0-2,1" transform="translate(-1.13 -19.8)" fill="#c3161c"/><path d="M35.57,45.5c-2.12,1.18-3.78,3.21-3.46,5.81a45.4,45.4,0,0,1,.73,5.34c0,3.87-1.82,6.74-7.42,7.86l-1,.2.82-.66c2.44-2,4.31-3.55,4.14-6.85-.08-1.54-.56-3.06-.63-4.66a6.16,6.16,0,0,1,2-5.27,10.9,10.9,0,0,1,6.9-2.77c-.7.3-1.43.68-2,1" transform="translate(-1.13 -19.8)" fill="#c3161c"/><path d="M39,28.79C30.67,33.91,21,42.4,16.66,51.18A26.37,26.37,0,0,0,13.72,62.3a14.35,14.35,0,0,0,.47,4.24l.23.7a.12.12,0,0,1,0,.14.12.12,0,0,1-.15,0l-.62-.4c-1.75-1.12-2.85-3.86-3.17-5.85a15.18,15.18,0,0,1,0-4.31,20.58,20.58,0,0,1,2.7-7.67A49.27,49.27,0,0,1,25.17,35.78a85.51,85.51,0,0,1,14.59-9.86l.29-.15a.11.11,0,0,1,.11,0,.13.13,0,0,1,.07.09l.08.31a80.91,80.91,0,0,1,2.24,17c.05,1.44.07,2.88.05,4.33-.06,5.05-.47,10.22-2.45,14.93-2.74,6.54-7.82,9.9-14.93,8l-1.09-.3A.14.14,0,0,1,24,70a.16.16,0,0,1,.11-.13l1.11-.21c10.76-2,13.39-14.55,14.13-23.75A82.46,82.46,0,0,0,39,28.79M18.78,72.52,16.07,76.2a.13.13,0,0,1-.14,0L15,76a.14.14,0,0,1-.09-.16L16.1,71.6a5.54,5.54,0,0,1-1-4.26.13.13,0,0,1,.1-.1.13.13,0,0,1,.14.05,7.31,7.31,0,0,0,4,2.55A11.58,11.58,0,0,0,23.3,70a.11.11,0,0,1,.13.05.11.11,0,0,1,0,.13A4.68,4.68,0,0,1,18.78,72.52Z" transform="translate(-1.13 -19.8)" fill="#c3161c"/><path d="M48.4,78.88V23.14H4.47V78.88ZM5.8,24.47H47.06V77.54H5.8Z" transform="translate(-1.13 -19.8)" fill="#d1aa67"/><path d="M399.47,56.15h0a85.54,85.54,0,0,0-26.26,2c-11.33,2.75-20.08,6.5-24.38,9.92-4.14,3.28-3.06,8,3.65,10,0,0,1-7.58,11.91-13.37s25.1-7,30.53-7.35a46.73,46.73,0,0,1,7.82,0c.65,0,.26-.81-3.27-1.22M370,29.6h0c1.65-.35,2.76-1.7,2.48-3s-1.84-2.09-3.49-1.73-2.76,1.69-2.48,3S368.33,30,370,29.6Zm-21.14-4.84h0c3.55-.49,5.89,2.5,4.64,5.4a6.06,6.06,0,0,1-.55,1v0a5.76,5.76,0,0,1-3.13,2,11.73,11.73,0,0,1-6.39-.25C343.53,28.79,345.72,25.2,348.84,24.76Zm41.44,5.57h0c.38-1.81.62-3.86,2-5.23a2.33,2.33,0,0,1,1.54-.68,1.12,1.12,0,0,1,1.17.69c.61,1.56.39,5-1.3,8.69a20.61,20.61,0,0,1-3.95,5.76A31.45,31.45,0,0,1,390.28,30.33ZM357.69,47.75c.11,3,.55,5.13,1.4,6.44,1.25,1.89,3.64,1.86,5.22-.87,1.13-2,2.19-7,2.69-9.77,0,.21,0,.4,0,.62-.08,5.24.72,7.59,2.29,8.81s3.21.4,4.72-2.38c1-1.77,1.89-6.09,2.44-9a29.41,29.41,0,0,0,.14,4.45c.48,3.18,1.23,4.52,2.45,5.15s3,.18,4.25-2.14c1.11-2,2-6.47,2.2-7.63.88,6.59,4.66,9.26,8.57,7.78s6.86-6.42,7.88-10.34a24.93,24.93,0,0,0,.72-3.19c.05-.38.26-1.22-.07-1.53a.42.42,0,0,0-.32-.14c-.41,0-.62,1-.71,1.33a48.59,48.59,0,0,1-1.23,5.14,17.22,17.22,0,0,1-3,5.45c-1.9,2.15-6.29,2.35-7.41-4.76,0-.13,0-.24-.05-.36,8.76-9,10-15.33,8.6-17.24-1.81-2.41-5-.8-7,.59a13.23,13.23,0,0,0-4.65,5.49,18,18,0,0,0-.68,1.91,20.32,20.32,0,0,0-.68,3.28c-.15,1.2,0,2.45-.2,3.64-.2,1.54-1.92,9.84-2.94,10.09s-1.5-.76-1.52-2.68.8-16.87.78-17.68.52-.84,1.07-1a3.2,3.2,0,0,0,1.64-.66c.48-.45.36-.65-.08-.56a13.41,13.41,0,0,1-2.23.39c-.4,0-.19-1.07-.23-2.33s-.42-3.23-1.62-4-3,.07-3,.07c.19,1.21,0,6.17,0,6.79s-.52.61-1.36.83a2,2,0,0,0-1.43.92c-.16.34,1.14.07,1.66,0s1-.33,1.11.18a37.37,37.37,0,0,1-.14,4c0,.57-.11,1.83-.22,3.38-.41,2.2-2.05,10.77-2.8,12.65-.86,2.16-2.24,2.7-2.37-.45s.59-15.85.59-15.85c-1.33-.86-3.14-1.19-4,.67a19,19,0,0,0-1,6.29c-.38,1.71-2,8.91-2.45,10.58-.49,1.91-1.71,3.49-2.29,1.87s-.28-6.36,0-10.92.57-12.3.59-15-.34-4.72-1.75-5.39a3.46,3.46,0,0,0-2.94.27c.33,2.69-.28,16.2-.54,22,0,.16,0,.31,0,.47C355.94,50.89,354,55,351.89,56.73s-4.74,2.54-7.35.28-2.63-6.76-1.58-10.22a6.67,6.67,0,0,1,4.92-4.88c1.83-.64,2.4-.76,2.21-1.23s-.78-.1-2.45-.33-3.67-.84-4.19-5.67c0-.12,0-.25,0-.37,3.39.67,6.76.58,9.67-2v0a5.06,5.06,0,0,0,1.76-5c-.76-3.16-5.12-4.75-9.89-2.37a10.84,10.84,0,0,0-5.57,6.76l-.79-.26a44.46,44.46,0,0,0-7.1-1.88c-1.93-.31-5.39-.28-6,2.19a1.89,1.89,0,0,0,1.34,2.12s1-1.5,4.51-1.68a27.28,27.28,0,0,1,7.7,1.1,11.24,11.24,0,0,0,.06,3.71c.83,4.33,5.55,5.29,5.55,5.29-1.69.45-4.75,2.46-6.25,7.46a8,8,0,0,0,4.42,10c2.95,1.07,7.61.16,10.58-3.1C355.41,54.36,356.93,50.19,357.69,47.75Z" transform="translate(-1.13 -19.8)" fill="#00adee"/></svg>