<?xml version="1.0" encoding="utf-8"?>
<!-- Generator: Adobe Illustrator 16.0.0, SVG Export Plug-In . SVG Version: 6.00 Build 0)  -->
<!DOCTYPE svg PUBLIC "-//W3C//DTD SVG 1.1//EN" "http://www.w3.org/Graphics/SVG/1.1/DTD/svg11.dtd">
<svg version="1.1" id="Layer_1" xmlns="http://www.w3.org/2000/svg" xmlns:xlink="http://www.w3.org/1999/xlink" x="0px" y="0px"
	 width="520px" height="144px" viewBox="0 0 520 144" enable-background="new 0 0 520 144" xml:space="preserve">
<g>
	<g>
		<g>
			<path fill-rule="evenodd" clip-rule="evenodd" fill="#982620" d="M99.399,34.916c20.877,6.588,23.813,35.827,6.521,65.088
				c-17.284,29.262-48.415,47.757-69.298,41.165c-20.875-6.584-23.804-35.825-6.525-65.084
				C47.388,46.819,78.512,28.326,99.399,34.916z"/>
			<path fill-rule="evenodd" clip-rule="evenodd" fill="#FFDA00" d="M75.317,86.794c-14.96,3.616-41.136,37.281-21.681,47.754
				c2.168,1.173,4.747,1.265,6.861,1.248c0.232,0.464-0.367,1.049-1.065,1.269c-15.945,4.042-23.562-6.808-18.837-22.202
				L59.836,72.13c2.013-5.309,1.356-10.164-1.134-14.716l4.536-1.988l-3.118-6.223l-4.813,3.964l4.246-6.511l-1.696-0.844
				c-3.871,7.633-9.063,14.146-15.568,19.527c6.735-3.758,15.224-5.541,12.17,6.225c-4.581,14.044-12.075,27.353-18.109,41.035
				c-12.16,36.419,23.889,32.078,37.515,14.291c4.341-5.406,6.955-11.969,8.377-19.324c2.334-21.501-0.153-43.298,2.745-64.523
				c3.472-15.709,10.527-20.232,21.503-26.431c3.742-2.021,7.966-3.565,12.662-4.635V0.939
				c-11.298,13.112-25.245,6.306-35.268,32.44c-4.327,18.024-2.527,46.283-2.365,68.174c-1.311,14.627-5.502,22.621-11.665,26.066
				c3.597-6.758,5.749-14.387,6.924-22.6C77.658,98.669,77.784,91.74,75.317,86.794L75.317,86.794z M65.174,137.881L65.174,137.881
				c28.75-18.412,29.277-38.607,41.333-61.754c3.937-6.348,8.155-9.841,12.643-12.185v8.512c-3.557,0.454-7.728,2.616-11.24,7.898
				c-2.312,3.569-18.029,39.859-18.309,40.203c-7.386,7.272-15.381,13.147-23.514,16.929L65.174,137.881L65.174,137.881z
				 M83.729,117.487c14.361-23.86,8.41-47.64,35.421-65.801v8.868C96.323,69.27,97.45,100.248,83.729,117.487L83.729,117.487
				L83.729,117.487z M84.612,103.751c11.604-22.338-1.198-43.642,34.538-65.676v7.954C92.453,55.507,95.572,86.434,84.612,103.751
				L84.612,103.751L84.612,103.751z M86.389,79.63c1.597-5.761,3.586-42.983,32.762-51.797v7.651
				C96.408,40.393,91.903,59.636,86.389,79.63L86.389,79.63L86.389,79.63z M85.501,65.623c0.374-6.115,2.869-41.124,33.649-49.345
				v7.678C96.348,28.78,89.963,45.104,85.501,65.623L85.501,65.623L85.501,65.623z M71.488,90.435
				c1.886,3.98,3.166,8.113,3.099,12.579c-0.545,9.656-3.035,18.346-7.467,26.065c-12.882,8.471-19.602-5.021-14.588-16.953
				C57.334,102.039,64.204,94.987,71.488,90.435L71.488,90.435z"/>
			<g>
				<path fill="#F6F05E" d="M37.232,112.894C43.205,99.365,50.624,86.189,55.153,72.3c1.136-4.401,0.651-6.885-0.761-8.075
					c0.854,1.393,1.007,3.723,0.066,7.338c-4.581,14.044-12.075,27.353-18.109,41.035c-6.733,20.154,1.306,27.824,12.139,27.642
					C38.159,140.054,30.731,132.363,37.232,112.894z"/>
				<path fill="#F6F05E" d="M53.636,134.548c1.518,0.816,3.226,1.103,4.842,1.202c-1.405-0.133-2.852-0.436-4.15-1.14
					c-19.156-10.324,6.437-43.388,21.273-47.198c-0.093-0.207-0.183-0.419-0.284-0.618C60.356,90.41,34.181,124.075,53.636,134.548z
					"/>
				<polygon fill="#F6F05E" points="60.12,49.203 58.099,50.87 55.307,53.167 60.646,50.262 				"/>
				<path fill="#F6F05E" d="M67.724,136.671l0.535-0.423c-0.303,0.211-0.628,0.414-0.943,0.626
					C67.458,136.808,67.587,136.736,67.724,136.671z"/>
				<path fill="#F6F05E" d="M60.066,137.098c0.699-0.22,1.288-0.792,1.055-1.257c-0.19,0.005-0.402,0.005-0.611,0
					c0.172,0.456-0.402,1.008-1.078,1.224c-2.388,0.601-4.577,0.87-6.58,0.842C55.021,138.018,57.429,137.77,60.066,137.098z"/>
				<path fill="#F6F05E" d="M67.676,129.199c4.382-7.637,6.853-16.231,7.392-25.788c0.058-4.419-1.205-8.507-3.064-12.446
					c-0.079,0.046-0.143,0.096-0.209,0.138c1.708,3.776,2.853,7.694,2.792,11.911c-0.545,9.656-3.035,18.346-7.467,26.065
					c-3.159,2.077-5.945,2.828-8.28,2.612C61.275,132.122,64.256,131.446,67.676,129.199z"/>
				<path fill="#F6F05E" d="M58.514,46.819l0.705,0.353l0.334-0.516l-1.696-0.844c-3.871,7.633-9.063,14.146-15.568,19.527
					c1.205-0.671,2.463-1.279,3.7-1.756C51.099,58.786,55.275,53.206,58.514,46.819z"/>
				<path fill="#F6F05E" d="M86.389,79.63c0.465-1.679,0.921-3.35,1.387-5.01c2.087-12.244,7.628-38.417,31.375-45.587v-1.2
					C89.975,36.647,87.985,73.869,86.389,79.63z"/>
				<path fill="#F6F05E" d="M85.501,65.623c0.218-1.018,0.45-2.019,0.68-3.012c1.198-10.989,6.563-37.956,32.969-45.009v-1.324
					C88.371,24.499,85.875,59.508,85.501,65.623z"/>
				<path fill="#F6F05E" d="M83.883,33.38c-4.327,18.024-2.527,46.283-2.365,68.174c-1.244,13.935-5.11,21.833-10.813,25.535
					c-0.112,0.22-0.871,0.452-0.982,0.668c5.879-2.956,10.9-11.314,12.197-25.788c-0.16-21.663-1.944-49.615,2.343-67.447
					c9.915-25.854,23.715-19.125,34.888-32.094V0.939C107.853,14.051,93.906,7.246,83.883,33.38z"/>
				<path fill="#F6F05E" d="M106.507,76.127c-11.696,22.446-12.544,42.119-38.802,60.079l-1.617,1.277
					c0.356-0.166,0.705-0.353,1.055-0.526l1.61-1.104l-0.495,0.395c25.972-17.766,26.814-37.231,38.383-59.438
					c3.895-6.281,8.068-9.736,12.508-12.054v-0.814C114.663,66.286,110.444,69.779,106.507,76.127z"/>
				<path fill="#F6F05E" d="M84.612,103.751c1.186-1.861,2.185-3.889,3.093-6.02c6.746-19.789-0.481-38.881,31.445-58.564v-1.092
					C83.414,60.109,96.217,81.413,84.612,103.751z"/>
				<path fill="#F6F05E" d="M83.729,117.487c0.846-1.058,1.64-2.177,2.369-3.334c11.696-22.396,7.676-44.459,33.052-61.518v-0.949
					C92.139,69.848,98.091,93.627,83.729,117.487z"/>
			</g>
			<g>
				<path fill="#D37E27" d="M52.39,111.297c-1.565,3.728-1.973,7.616-1.405,10.925c-0.361-3.13,0.114-6.675,1.548-10.096
					c4.801-10.087,11.671-17.139,18.956-21.691c0.197,0.415,0.379,0.829,0.562,1.248c-0.259-0.643-0.539-1.281-0.84-1.916
					C63.972,94.29,57.156,101.284,52.39,111.297z"/>
				<path fill="#D37E27" d="M63.01,55.022l-4.49,1.971c0.077,0.135,0.143,0.27,0.214,0.406l4.504-1.974l-3.118-6.223l-0.013,0.011
					L63.01,55.022z"/>
				<polygon fill="#D37E27" points="55.307,53.167 56.041,52.039 59.552,46.655 59.241,46.504 				"/>
				<path fill="#D37E27" d="M53.48,133.549c-4.148-2.239-6.211-5.548-6.727-9.396c0.303,4.275,2.353,7.961,6.882,10.395
					c1.924,1.045,4.177,1.228,6.134,1.248c0.434-0.282,0.695-0.676,0.533-1.008C58.2,134.805,55.638,134.714,53.48,133.549z"/>
				<path fill="#D37E27" d="M40.595,114.862L59.836,72.13c1.802-4.743,1.464-9.125-0.404-13.252
					c1.684,3.968,1.932,8.178,0.214,12.72l-19.105,42.412c-1.09,3.565-1.505,6.878-1.322,9.821
					C39.167,121.103,39.604,118.08,40.595,114.862z"/>
				<path fill="#D37E27" d="M76.455,104.236c-1.157,8.159-3.159,16.808-6.733,23.521c0.361-0.203,0.835-1.518,0.931-1.741
					c3.118-6.36,5.05-13.425,6.124-20.995c0.881-6.352,1.008-13.28-1.459-18.227h-0.019C77.434,91.653,77.291,98.208,76.455,104.236
					z"/>
				<path fill="#D37E27" d="M54.708,64.887c-1.128-4.125-6.207-3.157-10.935-0.835c-0.493,0.429-0.979,0.869-1.484,1.287
					C47.251,62.567,53.161,60.884,54.708,64.887z"/>
				<path fill="#D37E27" d="M118.51,23.784c-21.528,4.555-28.309,19.441-32.73,38.415c-0.155,1.501-0.232,2.676-0.278,3.425
					c4.461-20.519,10.846-36.843,33.649-41.667v-7.678c-0.226,0.054-0.421,0.126-0.641,0.188V23.784z"/>
				<path fill="#D37E27" d="M118.51,1.64v10.255c-4.66,1.061-8.843,2.593-12.566,4.596c-10.887,6.152-17.9,10.645-21.343,26.24
					c-2.869,21.066-0.411,42.695-2.722,64.042c-1.41,7.293-4.005,13.807-8.314,19.176c-3.344,4.365-8.045,7.91-13.047,10.228
					c-0.118,0.365-0.57,0.726-1.084,0.888c-0.781,0.194-1.542,0.353-2.282,0.473c-11.333,3.931-22.992,1.314-23.259-12.389
					c-0.398,22.451,28.18,17.136,39.973,1.741c4.341-5.406,6.955-11.969,8.377-19.324c2.334-21.501-0.153-43.298,2.745-64.523
					c3.472-15.709,10.527-20.232,21.503-26.431c3.742-2.021,7.966-3.565,12.662-4.635V0.939
					C118.937,1.182,118.729,1.408,118.51,1.64z"/>
				<path fill="#D37E27" d="M118.51,71.917c-3.532,0.452-7.664,2.599-11.148,7.846c-2.307,3.537-17.902,39.557-18.174,39.901
					c-5.649,5.56-11.659,10.29-17.811,13.889c-1.175,0.888-2.384,1.774-3.671,2.653l-1.617,1.277
					c8.132-3.781,16.127-9.656,23.514-16.929c0.28-0.344,15.997-36.634,18.309-40.203c3.512-5.282,7.683-7.444,11.24-7.898v-8.512
					c-0.22,0.11-0.427,0.224-0.641,0.344V71.917z"/>
				<path fill="#D37E27" d="M118.51,35.229c-20.543,4.432-26.093,20.655-31.053,38.496c-0.475,2.763-0.777,4.86-1.068,5.905
					c5.514-19.994,10.019-39.237,32.762-44.146v-7.651c-0.226,0.064-0.421,0.147-0.641,0.218V35.229z"/>
				<path fill="#D37E27" d="M118.51,60.109c-20.029,7.647-21.482,32.565-30.964,50.065c-1.096,2.434-2.349,4.875-3.816,7.313
					C97.45,100.248,96.323,69.27,119.15,60.555v-8.868c-0.226,0.151-0.421,0.302-0.641,0.452V60.109z"/>
				<path fill="#D37E27" d="M118.51,45.691c-22.921,8.134-23.705,32.181-30.524,49.652c-0.832,2.786-1.903,5.584-3.373,8.407
					c10.96-17.317,7.84-48.244,34.538-57.722v-7.954c-0.22,0.135-0.421,0.27-0.641,0.4V45.691z"/>
			</g>
		</g>
		<g>
			<g>
				<path fill="#982620" d="M164.945,72.377c-0.291,0.639-0.504,1.104-0.626,1.385c-0.121,0.29-0.197,0.466-0.222,0.541
					c-0.029,0.033-0.052,0.076-0.064,0.131c-0.013,0.054-0.013,0.095-0.013,0.132c-0.112,0.428-0.207,0.873-0.29,1.338
					c-0.083,0.464-0.155,1.016-0.201,1.654c-0.16,0-0.29,0-0.385,0c-0.096,0-0.189-0.013-0.261-0.055c-0.058,0-0.1,0-0.125,0
					c-0.029,0-0.054,0-0.083,0c-0.045,0-0.141-0.024-0.268-0.078c-0.118-0.05-0.24-0.153-0.383-0.295
					c-0.025-0.037-0.06-0.078-0.102-0.133c-0.042-0.054-0.089-0.111-0.141-0.187c0-0.431-0.006-0.767-0.019-1.016
					c-0.019-0.248-0.035-0.423-0.066-0.53c0.031,0,0.048,0,0.048,0c0,0.033,0,0.05,0,0.05s-0.017,0-0.048,0
					c-0.16-0.07-0.982-0.108-2.477-0.108c-1.48,0-3.634,0-6.443,0c-0.408,0-0.759-0.045-1.037-0.128
					c-0.286-0.094-0.539-0.191-0.748-0.299c-0.195-0.105-0.342-0.205-0.45-0.292c-0.112-0.087-0.16-0.133-0.16-0.133
					c0,0.46,0,0.968,0.013,1.523c0.017,0.552,0.023,1.124,0.023,1.733c0,0.639,0.012,1.322,0.022,2.027
					c0.013,0.717,0.019,1.479,0.019,2.301c0,0.783,0.006,1.563,0.019,2.347c0.019,0.788,0.022,1.588,0.022,2.409
					c0,0.783,0.006,1.575,0.019,2.375c0.017,0.801,0.022,1.613,0.022,2.43c0.023,1.103,0.048,2.732,0.06,3.674
					c0.017,0.94,0.017,1.808,0.017,2.591c0,0.179,0,0.344,0,0.506s0.019,0.327,0.044,0.51c0,0.142,0,0.295,0,0.452
					c0,0.161,0,0.315,0,0.456c0,0.821,0.068,1.538,0.207,2.164c0.128,0.622,0.332,1.111,0.604,1.468
					c0.083,0.107,0.184,0.203,0.309,0.294c0.118,0.088,0.271,0.187,0.462,0.291c0.218,0.107,0.498,0.207,0.835,0.298
					c0.338,0.092,0.759,0.187,1.275,0.295c-0.676,0.846-0.985,1.26-1.827,1.815c-0.698-0.183-1.345-0.298-1.926-0.348
					c-0.583-0.055-1.127-0.083-1.648-0.083c-0.29,0-0.628,0.012-1.014,0.028c-0.373,0.017-0.835,0.066-1.38,0.137
					c-0.1-0.145-0.191-0.252-0.261-0.323c-0.245-0.257-0.232-0.394-0.469-0.692c0.052-2.068,0.089-4.349,0.106-6.841
					c0.008-2.495,0.019-5.887,0.019-8.988c0-1.318,0-2.5,0-3.553c0-1.054-0.01-1.97-0.042-2.749c0-0.497-0.019-1.115-0.064-1.845
					c-0.038-0.729-0.073-1.576-0.096-2.537c0-0.461-0.006-0.962-0.019-1.497c-0.019-0.535-0.035-1.103-0.064-1.708
					c-0.19,0-0.385,0-0.593,0c-0.197,0-0.433-0.017-0.707-0.05c-0.431,0-0.887,0-1.357,0c-0.479,0-0.983,0-1.521,0
					c-1.221,0-2.305,0.021-3.267,0.074c-0.96,0.059-1.795,0.153-2.5,0.299c-0.085,0.033-0.156,0.07-0.245,0.107
					c-0.081,0.029-0.158,0.087-0.243,0.158c-0.023,0.033-0.048,0.07-0.077,0.104c-0.029,0.037-0.054,0.074-0.083,0.107
					c-0.029,0.037-0.054,0.075-0.083,0.108c-0.029,0.037-0.054,0.07-0.077,0.107c-0.029,0.037-0.054,0.07-0.083,0.107
					c-0.025,0.033-0.054,0.066-0.085,0.108c-0.029,0.066-0.058,0.128-0.1,0.187c-0.041,0.054-0.072,0.111-0.095,0.187
					c-0.058,0.104-0.112,0.224-0.166,0.344c-0.058,0.129-0.125,0.257-0.208,0.398l-0.883,0.27c-0.035,0-0.054-0.009-0.07-0.025
					c-0.012-0.017-0.029-0.046-0.058-0.083c-0.056-0.033-0.114-0.095-0.178-0.183c-0.073-0.091-0.149-0.187-0.226-0.298
					c0,0,0-0.009,0-0.025s0-0.062,0-0.133c-0.029-0.07-0.042-0.194-0.042-0.373c0-1.745,0.96-3.617,1.132-5.452
					c1.712,0.075,3.385,0.126,5.033,0.164c1.654,0.035,3.29,0.054,4.913,0.054c0.701,0.035,1.416,0.054,2.152,0.054
					c0.728,0,1.463,0,2.193,0c2.027,0,4.368-0.039,7.023-0.107c2.656-0.071,5.639-0.179,8.976-0.324
					c0.1,0.145,0.166,0.253,0.189,0.324c0.029,0.068,0.064,0.124,0.083,0.159c0.029,0.033,0.07,0.089,0.124,0.162
					C164.597,71.915,164.731,72.089,164.945,72.377L164.945,72.377z M200.783,105.725L200.783,105.725
					c-0.023,0.033-0.048,0.05-0.048,0.05c-0.029,0-0.04,0.021-0.077,0.059c-0.724-0.108-1.333-0.179-1.82-0.216
					c-0.491-0.033-0.912-0.054-1.262-0.054c-0.268,0-0.611,0.021-1.014,0.054c-0.402,0.037-0.947,0.107-1.623,0.216
					c-0.025-0.037-0.048-0.066-0.06-0.079c-0.006-0.021-0.036-0.05-0.061-0.083c-0.029-0.037-0.058-0.063-0.083-0.083
					c-0.023-0.017-0.068-0.024-0.112-0.024c-0.06-0.07-0.118-0.133-0.166-0.191c-0.06-0.049-0.112-0.091-0.166-0.128
					c0,0-0.012-0.017-0.042-0.054c-0.029-0.033-0.072-0.079-0.125-0.133c-0.054-0.054-0.118-0.133-0.201-0.245v-15.7h-18.831
					c0,0.174-0.006,0.373-0.019,0.584c-0.019,0.216-0.025,0.428-0.025,0.643c0,0.253-0.004,0.498-0.017,0.751
					c-0.006,0.244-0.023,0.51-0.023,0.8c0,0.39-0.008,0.792-0.019,1.202c-0.013,0.411-0.019,0.809-0.019,1.198
					c0,0.395-0.01,0.796-0.022,1.202c-0.013,0.411-0.019,0.813-0.019,1.203c0,0.497,0,0.974,0,1.413c0,0.448,0,0.871,0,1.261
					c0,0.179,0,0.353,0,0.53c0,0.179,0,0.341,0,0.481c0,0.68,0.019,1.223,0.06,1.629c0.042,0.411,0.143,0.705,0.303,0.879
					c0.211,0.22,0.528,0.398,0.931,0.539c0.408,0.142,1.177,0.212,2.317,0.212c-0.516,0.643-0.825,1.045-0.931,1.202
					c-0.114,0.162-0.166,0.277-0.166,0.349c-0.025,0.037-0.06,0.111-0.102,0.24c-0.042,0.124-0.13,0.344-0.265,0.667
					c-0.837-0.178-1.518-0.302-2.046-0.373c-0.522-0.07-0.983-0.107-1.364-0.107c-0.348,0-0.728,0.017-1.138,0.054
					c-0.402,0.033-0.918,0.146-1.534,0.319c-0.166-0.174-0.28-0.294-0.351-0.349c-0.064-0.054-0.112-0.099-0.143-0.132
					c0,0-0.006-0.009-0.019-0.021c-0.01-0.021-0.01-0.033-0.01-0.033s-0.017-0.012-0.029-0.024c-0.019-0.017-0.035-0.029-0.06-0.029
					c0-0.037-0.01-0.05-0.01-0.05s-0.031-0.021-0.031-0.054c-0.054-0.037-0.099-0.107-0.141-0.216
					c-0.042-0.107-0.112-0.248-0.226-0.427c0.029-0.854,0.048-1.662,0.06-2.43c0.017-0.767,0.023-1.505,0.023-2.218
					c0.052-1.422,0.095-2.724,0.124-3.897c0.029-1.178,0.042-2.243,0.042-3.209c0-1.136,0-2.197,0-3.176
					c0-0.982-0.029-1.808-0.083-2.483c-0.031-0.929-0.048-1.887-0.064-2.882c-0.006-1.003-0.042-2.247-0.102-3.275
					c-0.019-1.106-0.06-2.068-0.1-2.89c-0.037-0.816-0.079-1.513-0.102-2.081c0-0.427-0.058-0.8-0.185-1.121
					c-0.118-0.319-0.303-0.554-0.551-0.697c-0.185-0.139-0.402-0.236-0.645-0.29c-0.245-0.054-0.512-0.08-0.813-0.08v-0.91
					l-0.327-0.803c0,0,0.012-0.004,0.025-0.022c0.012-0.019,0.035-0.046,0.058-0.081c0.031,0,0.05-0.008,0.066-0.027
					c0.013-0.021,0.013-0.029,0.013-0.029s0.017-0.01,0.022-0.022c0.017-0.019,0.036-0.048,0.066-0.081
					c0.023,0,0.054-0.01,0.058-0.027c0.013-0.019,0.019-0.029,0.019-0.029l0.492-0.211c0.107,0,0.226,0,0.367,0
					c0.13,0,0.292,0.015,0.481,0.05c0.188,0,0.344,0,0.45,0c0.108,0,0.185,0,0.243,0c0.079,0,0.172,0,0.286,0
					c0.105,0,0.211,0,0.325,0c0.214-0.035,0.392-0.05,0.545-0.05c0.149,0,0.28,0,0.386,0c0.213,0,0.58-0.043,1.096-0.137
					c0.517-0.087,1.339-0.201,2.478-0.346c0,0.862,0.197,1.677,0.042,2.511c-0.029,0.143-0.06,0.288-0.089,0.427
					c0,0.146,0,0.297-0.017,0.456c-0.012,0.159-0.019,0.294-0.019,0.4c-0.029,0.139-0.048,0.284-0.048,0.425
					c0,0.149,0,0.307,0,0.485c0,0.141,0.013,0.303,0.025,0.477c0.017,0.183,0.023,0.36,0.023,0.539
					c0.025,0.353,0.048,0.754,0.058,1.202c0.012,0.443,0.025,0.916,0.025,1.414v2.135c0,0.783,0.012,1.733,0.042,2.393
					c0.025,0.659,0.047,1.256,0.079,1.791h19.032c0-0.146,0-0.299,0-0.456c0-0.158,0-0.312,0-0.452c0-0.394-0.006-0.846-0.019-1.364
					c-0.019-0.514-0.048-1.115-0.1-1.791c-0.025-0.713-0.05-1.401-0.066-2.081c-0.01-0.676-0.029-1.157-0.058-1.725
					c0-0.323,0-0.605,0-0.858c0-0.244,0-0.477,0-0.688c-0.031-0.22-0.031-0.406-0.031-0.567c0-0.158,0-0.291,0-0.398
					c0-0.211-0.042-0.394-0.112-0.535c-0.066-0.139-0.166-0.281-0.303-0.425c-0.19-0.176-0.456-0.313-0.794-0.402
					c-0.338-0.089-0.966-0.132-1.886-0.132c0.356-0.679,0.595-1.111,0.729-1.311c0.137-0.193,0.232-0.33,0.286-0.4
					c0-0.038,0.004-0.054,0.004-0.054c0.031,0,0.035,0,0.035,0c0.056-0.068,0.13-0.151,0.226-0.24
					c0.089-0.089,0.197-0.203,0.302-0.346c0.083,0,0.156,0.01,0.22,0.027c0.071,0.017,0.141,0.029,0.226,0.029
					c0.377,0.033,0.759,0.061,1.136,0.077c0.379,0.021,0.79,0.031,1.215,0.031c0.298,0,0.707-0.047,1.223-0.137
					c0.51-0.089,1.308-0.238,2.395-0.454c-0.029,2.351-0.054,4.754-0.066,7.212c-0.012,2.459-0.017,5.021-0.017,7.977
					c0,1.211,0.004,2.5,0.017,3.873c0.012,1.372,0.037,2.786,0.066,4.245c0,0.783,0.012,1.505,0.042,2.164
					c0.022,0.659,0.052,1.273,0.083,1.841c0,0.572,0.012,1.099,0.035,1.575c0.025,0.481,0.042,0.921,0.042,1.311
					c0,0.107,0.019,0.224,0.042,0.349c0.022,0.124,0.066,0.24,0.12,0.348c0.029,0.108,0.075,0.225,0.147,0.349
					c0.064,0.12,0.137,0.24,0.22,0.344c0.058,0.037,0.106,0.083,0.166,0.133c0.048,0.054,0.118,0.1,0.201,0.133
					c0.083,0.037,0.16,0.083,0.242,0.137c0.083,0.054,0.16,0.1,0.243,0.133c0.22,0.107,0.392,0.194,0.529,0.266
					c0.137,0.074,0.242,0.107,0.325,0.107L200.783,105.725L200.783,105.725z M240.313,103.855L240.313,103.855
					c-0.574,0.709-0.96,1.476-1.501,2.192c-0.782-0.145-1.48-0.244-2.085-0.294c-0.609-0.058-1.184-0.083-1.731-0.083
					c-0.348,0-0.771,0.017-1.256,0.054c-0.485,0.033-1.138,0.125-1.951,0.266c-0.373-0.709-0.775-1.442-1.196-2.189
					c-0.421-0.75-0.854-1.566-1.316-2.458c-0.243-0.432-0.487-0.862-0.713-1.306c-0.228-0.448-0.466-0.9-0.709-1.368
					c-0.245-0.424-0.475-0.863-0.711-1.307c-0.232-0.443-0.471-0.879-0.713-1.31c-0.431-0.817-0.811-1.538-1.155-2.16
					c-0.338-0.622-0.641-1.169-0.914-1.63h-10.833c-0.162,0.356-0.338,0.763-0.529,1.231c-0.188,0.46-0.404,0.995-0.651,1.601
					c-0.267,0.713-0.545,1.431-0.831,2.164c-0.278,0.729-0.568,1.451-0.877,2.16c-0.29,0.717-0.558,1.339-0.788,1.87
					c-0.226,0.534-0.434,1.032-0.622,1.496c0,0,0,0.029,0,0.083c0,0.05,0,0.096,0,0.129c0,0,0,0.013,0,0.029s0,0.045,0,0.082
					c0,0.033,0,0.079,0,0.133s0.01,0.1,0.035,0.133c0,0.07,0.013,0.133,0.031,0.183c0.004,0.058,0.029,0.104,0.052,0.137
					c0.083,0.107,0.255,0.179,0.526,0.212c0.268,0.037,0.605,0.058,1.014,0.058v0.85l-0.035,1.39
					c-0.817-0.104-1.488-0.166-2.009-0.187c-0.535-0.017-1.016-0.025-1.447-0.025c-0.243,0-0.581,0.009-1.014,0.025
					c-0.433,0.021-1.055,0.082-1.868,0.187c-0.131-0.282-0.224-0.461-0.266-0.531c-0.035-0.07-0.054-0.128-0.054-0.161
					c-0.06-0.071-0.118-0.158-0.191-0.266c-0.064-0.108-0.147-0.286-0.259-0.535c0.756-1.206,1.391-2.288,1.907-3.233
					c0.516-0.941,0.98-1.841,1.374-2.695c0.464-0.816,0.879-1.612,1.24-2.376c0.369-0.771,0.688-1.472,0.962-2.114
					c0.29-0.605,0.674-1.509,1.155-2.724c0.468-1.211,1.086-2.687,1.843-4.432c1.163-2.745,2.046-5.125,2.639-7.16
					c0.597-2.032,0.902-3.773,0.937-5.09c0-0.037-0.012-0.072-0.025-0.109c-0.01-0.035-0.029-0.068-0.058-0.102
					c0-0.042-0.006-0.066-0.019-0.085c-0.017-0.017-0.035-0.044-0.06-0.077c0-0.037-0.012-0.072-0.022-0.111
					c-0.006-0.031-0.036-0.05-0.036-0.05c-0.083-0.106-0.226-0.312-0.475-0.616c-0.243-0.303-0.717-0.953-1.422-1.948
					c1.055-0.038,1.843-0.081,2.353-0.135c0.517-0.052,0.966-0.096,1.346-0.135c0.025,0,0.042,0,0.042,0h0.035
					c0.379-0.035,0.806-0.068,1.265-0.108c0.454-0.031,1.024-0.102,1.7-0.209c0.249,0.78,0.634,1.826,1.179,3.124
					c0.539,1.298,1.234,3.002,2.069,4.959c0.865,1.957,1.684,3.772,2.455,5.447c0.769,1.675,1.524,3.188,2.257,4.54
					c0.048,0.037,0.249,0.369,0.581,0.991c0.344,0.626,0.848,1.592,1.524,2.91c0.622,1.206,1.179,2.26,1.665,3.151
					c0.487,0.891,0.896,1.621,1.217,2.188c0.325,0.539,0.651,1.062,0.976,1.575c0.319,0.519,0.66,1.008,1.016,1.473
					c0.319,0.427,0.622,0.783,0.889,1.069c0.271,0.282,0.539,0.514,0.817,0.692c0.105,0.033,0.226,0.079,0.363,0.133
					c0.135,0.054,0.325,0.1,0.568,0.133c0.249,0.037,0.543,0.074,0.912,0.107C239.282,103.73,239.744,103.78,240.313,103.855
					L240.313,103.855z M224.083,90.124L224.083,90.124l-0.616,0.431c-0.213-0.502-0.481-1.069-0.807-1.712
					c-0.325-0.639-0.694-1.389-1.096-2.243c-0.274-0.605-0.541-1.182-0.813-1.733c-0.273-0.556-0.545-1.119-0.813-1.683
					c-0.135-0.286-0.265-0.572-0.402-0.858c-0.131-0.282-0.272-0.568-0.409-0.854c-0.22-0.497-0.427-0.949-0.63-1.363
					c-0.206-0.407-0.384-0.792-0.543-1.148c-0.114,0.356-0.232,0.721-0.367,1.099c-0.139,0.373-0.274,0.791-0.404,1.256
					c-0.166,0.53-0.344,1.091-0.529,1.684c-0.195,0.584-0.385,1.165-0.574,1.732c-0.102,0.286-0.201,0.568-0.278,0.854
					c-0.083,0.286-0.178,0.572-0.29,0.854c-0.155,0.572-0.309,1.091-0.446,1.551c-0.137,0.465-0.267,0.892-0.402,1.281h9.417V90.124
					z"/>
				<path fill="#982620" d="M245.505,72.389c1.007,1.288,1.474,1.884,2.299,2.905c0.825,1.02,1.6,1.969,2.33,2.856
					c0.692,0.846,1.41,1.683,2.139,2.521c0.74,0.829,1.495,1.658,2.27,2.471c0.749,0.851,1.559,1.725,2.438,2.629
					c0.883,0.896,1.82,1.841,2.832,2.823c1.75,1.771,3.474,3.445,5.145,5.025c1.684,1.579,3.321,3.063,4.926,4.461
					c-0.025-0.511-0.059-1.037-0.1-1.584c-0.042-0.539-0.092-1.136-0.137-1.778c-0.029-0.308-0.042-0.631-0.059-0.975
					c-0.012-0.336-0.037-0.676-0.054-1.016c-0.029-1.021-0.07-2.023-0.137-3.006c-0.066-0.987-0.124-1.974-0.174-2.96
					c-0.029-0.478-0.059-0.967-0.079-1.48c-0.024-0.506-0.046-1.004-0.079-1.477c-0.078-1.496-0.148-2.831-0.215-4
					c-0.063-1.174-0.116-2.182-0.17-3.035c-0.029-0.1-0.055-0.212-0.075-0.327c-0.033-0.121-0.058-0.249-0.079-0.391
					c-0.028-0.132-0.054-0.261-0.082-0.381c-0.025-0.116-0.063-0.229-0.112-0.328c-0.033-0.137-0.063-0.257-0.096-0.354
					c-0.041-0.104-0.083-0.207-0.137-0.307c-0.024-0.068-0.05-0.122-0.063-0.153c-0.008-0.033-0.028-0.068-0.058-0.102
					c-0.017-0.035-0.058-0.07-0.096-0.104c-0.033-0.035-0.07-0.068-0.1-0.102c-0.045-0.035-0.107-0.066-0.17-0.104
					c-0.066-0.031-0.128-0.064-0.174-0.1h-0.021H267.4c-0.179-0.102-0.402-0.187-0.676-0.257c-0.27-0.066-0.805-0.149-1.604-0.253
					c0.51-0.643,0.813-1.028,0.887-1.146c0.07-0.12,0.07-0.128,0-0.027c0,0,0.025-0.06,0.07-0.178
					c0.055-0.118,0.216-0.296,0.469-0.533c0.133,0,0.262,0,0.386,0c0.133,0,0.261,0,0.397,0c0.133,0.035,0.258,0.049,0.386,0.049
					c0.129,0,0.258,0,0.386,0c0.282,0,0.526,0,0.729,0c0.208,0,0.395-0.014,0.544-0.049c0.178,0,0.414-0.036,0.7-0.102
					c0.29-0.069,0.593-0.172,0.929-0.305c0,0,0.05,0,0.079,0c0.024,0,0.066,0,0.111,0h0.059c0.05,0,0.074,0,0.104,0s0.054,0,0.095,0
					c0.033,0,0.071,0,0.071,0c0.111,0,0.187,0.015,0.294,0.046c0.107,0.037,0.273,0.105,0.506,0.207
					c-0.054,0.439-0.083,0.805-0.1,1.095c-0.013,0.29-0.013,0.537-0.013,0.738c-0.028,0.068-0.041,0.137-0.041,0.205
					c0,0.064,0,0.137,0,0.205c0,0.133-0.013,0.271-0.025,0.404c0,0.137-0.016,0.292-0.016,0.456c0,0.072,0,0.149,0,0.236
					c0,0.083,0,0.159,0,0.226c-0.025,0.07-0.038,0.146-0.038,0.229c0,0.087,0,0.166,0,0.228c-0.028,0.241-0.045,0.515-0.058,0.821
					c-0.013,0.303-0.017,0.609-0.017,0.916c0,0.51,0,1.119,0,1.837c0,0.713,0,1.525,0,2.441c0,0.448,0,0.913,0,1.406
					s0,1.007,0,1.551c0,0.58,0,1.14,0,1.687c0,0.544,0,1.087,0,1.63c0,1.053,0,2.073,0,3.06c0,0.982,0,1.953,0,2.902
					c0.046,1.393,0.079,2.6,0.091,3.619c0.013,1.021,0.037,1.837,0.063,2.45c0,0.096-0.013,0.203-0.025,0.303
					c0,0.1-0.028,0.207-0.054,0.312c-0.028,0.298-0.07,0.609-0.141,0.916c-0.063,0.303-0.12,0.593-0.174,0.862
					c0,0.033,0,0.058,0,0.079c0,0.017,0,0.045,0,0.074c-0.055,0.373-0.116,0.8-0.187,1.281c-0.079,0.469-0.187,1.186-0.315,2.135
					c-1.265-1.053-2.33-1.969-3.196-2.753c-0.867-0.783-1.667-1.492-2.417-2.139c-0.755-0.681-1.477-1.344-2.189-1.99
					c-0.709-0.647-1.397-1.29-2.069-1.937c-0.638-0.68-1.361-1.401-2.149-2.164c-0.79-0.767-1.635-1.575-2.537-2.421
					c-1.186-1.19-2.282-2.306-3.29-3.342c-1.007-1.037-1.928-1.978-2.757-2.832c-0.647-0.672-1.37-1.455-2.187-2.343
					c-0.813-0.879-1.706-1.869-2.685-2.956c0.023,0.511,0.042,1.065,0.042,1.659c0,0.593,0,1.231,0,1.907
					c0.019,0.75,0.029,1.525,0.029,2.321c0,0.8,0,1.588,0,2.371c0,0.203,0,0.398,0,0.585s0.013,0.365,0.042,0.539
					c0,0.199,0,0.394,0,0.585c0,0.187,0,0.381,0,0.584c0.054,1.157,0.077,2.181,0.077,3.085c0,0.899,0,1.688,0,2.371
					c0,0.506,0.006,0.971,0.019,1.377c0.019,0.406,0.047,0.8,0.102,1.169c0.045,0.273,0.118,0.589,0.207,0.945
					c0.095,0.356,0.188,0.726,0.29,1.099c0.029,0.033,0.054,0.07,0.083,0.124c0.035,0.05,0.048,0.092,0.077,0.129
					c0.023,0.033,0.048,0.07,0.083,0.1c0.019,0.033,0.042,0.07,0.073,0.104c0.058,0.033,0.093,0.079,0.135,0.124
					c0.035,0.055,0.112,0.096,0.213,0.129h0.017h0.019c0.131,0,0.28,0.033,0.446,0.104c0.172,0.07,0.421,0.149,0.757,0.257
					c0,0.34,0,0.552,0,0.635c0,0.087,0,0.161,0,0.228c0,0.104-0.033,0.245-0.1,0.411c-0.066,0.17-0.224,0.385-0.485,0.663
					c-0.385-0.104-0.748-0.19-1.074-0.257c-0.943-0.191-1.665-0.1-2.562-0.1l-0.846-1.427c-0.166-0.373-0.296-0.841-0.415-1.401
					c-0.118-0.563-0.172-1.235-0.172-2.015c0.023-0.104,0.035-0.207,0.035-0.311c0-0.1,0-0.216,0-0.353
					c0.052-1.667,0.096-3.229,0.118-4.693c0.023-1.459,0.048-2.815,0.048-4.075v-1.48c0-0.27,0-0.568,0.012-0.892
					c0.011-0.323,0.029-0.667,0.052-1.045c0-0.203,0.012-0.414,0.025-0.634c0.012-0.224,0.019-0.452,0.019-0.692
					c0-0.336,0-0.663,0-0.962c0-0.312,0.022-0.581,0.033-0.821c0-0.27,0-0.506,0-0.713c0-0.203,0-0.373,0-0.506
					c0-1.359-0.1-2.57-0.307-3.623c-0.207-1.05-0.526-1.953-0.966-2.699c-0.178-0.312-0.379-0.572-0.599-0.792
					c-0.218-0.22-0.462-0.384-0.717-0.483c-0.261-0.137-0.479-0.224-0.674-0.255c-0.197-0.035-0.356-0.052-0.487-0.052v-0.866
					l-0.309-0.768h0.019c0,0,0.004,0.019-0.019,0.057h-0.023h-0.019c-0.029,0-0.048-0.019-0.06-0.057
					c-0.01-0.03-0.017-0.101-0.017-0.199c0.029,0,0.048,0,0.048,0h0.029c0.166,0,0.421,0,0.771,0c0.367,0,1.279,0,2.751,0H245.505
					L245.505,72.389z M309.552,74.979L309.552,74.979c-0.148,0.373-0.261,0.68-0.344,0.933c-0.079,0.245-0.146,0.489-0.194,0.738
					c-0.179,0.813-0.934,2.496-0.934,3.287l-1.285-0.53c0-0.179-0.024-0.373-0.078-0.585c-0.059-0.211-0.104-0.46-0.158-0.742
					c-0.024-0.207-0.104-0.394-0.211-0.555c-0.104-0.158-0.225-0.295-0.353-0.398c-0.162-0.107-0.448-0.236-0.854-0.394
					c-0.402-0.162-0.908-0.315-1.529-0.452c-0.639-0.174-1.344-0.336-2.11-0.477c-0.763-0.146-1.576-0.286-2.43-0.423
					c-0.838-0.146-1.642-0.232-2.442-0.27c-0.787-0.033-1.505-0.05-2.151-0.05c-0.966,0-1.87,0.024-2.699,0.078
					c-0.829,0.055-1.621,0.166-2.376,0.345c-0.667,0.141-1.313,0.353-1.932,0.634c-0.618,0.282-1.189,0.639-1.729,1.062
					c-0.489,0.39-0.929,0.884-1.327,1.48c-0.406,0.601-0.75,1.31-1.053,2.123c-0.266,0.779-0.477,1.703-0.643,2.785
					c-0.158,1.07-0.241,2.269-0.241,3.574c0,2.687,0.357,4.954,1.07,6.808c0.709,1.854,1.778,3.313,3.2,4.37
					c1.497,1.058,3.159,1.874,4.972,2.441c1.815,0.561,3.776,0.88,5.899,0.95c0.85,0,1.671-0.029,2.434-0.079
					c0.767-0.054,1.451-0.133,2.069-0.236c0.621-0.107,1.169-0.224,1.649-0.349c0.485-0.12,0.9-0.253,1.248-0.397
					c0.054-0.033,0.12-0.05,0.187-0.05c0.063,0,0.112,0,0.142,0c0.211,0,0.385,0.07,0.521,0.211
					c0.138,0.142,0.241,0.303,0.319,0.478c0.055,0.178,0.096,0.331,0.1,0.477c0.021,0.145,0.009,0.211-0.012,0.211v-0.903h-0.688
					v-8.052c0-0.493-0.063-0.933-0.208-1.326c-0.128-0.386-0.318-0.685-0.56-0.9c-0.083-0.07-0.203-0.145-0.364-0.236
					c-0.158-0.091-0.349-0.165-0.56-0.236c-0.27-0.145-0.589-0.231-0.967-0.27c-0.381-0.028-1.053-0.05-2.011-0.05
					c0.456-0.813,0.747-1.322,0.884-1.538c0.137-0.211,0.244-0.356,0.319-0.427c0.028,0,0.049-0.004,0.062-0.021
					c0.017-0.021,0.033-0.033,0.063-0.033c0.05-0.029,0.112-0.074,0.161-0.133c0.055-0.046,0.129-0.112,0.245-0.183
					c0.079,0,0.153,0,0.216,0c0.066,0,0.145,0,0.22,0c0.083,0,0.161,0.009,0.224,0.029c0.066,0.017,0.141,0.024,0.224,0.024
					c0.133,0,0.282,0,0.444,0c0.157,0,0.331,0,0.526,0c0.045,0,0.095,0,0.137,0c0.033,0,0.074,0,0.074,0
					c0.299,0,0.56-0.008,0.829-0.024c0.27-0.021,0.576-0.046,0.929-0.083c0.295-0.033,0.705-0.107,1.224-0.236
					c0.53-0.12,1.186-0.307,1.994-0.556c0.157,0.212,0.253,0.328,0.281,0.345c0.025,0.017,0.013-0.009-0.045-0.079
					c0.033,0,0.095,0.041,0.19,0.129c0.087,0.091,0.232,0.281,0.423,0.56v13.296c-0.141,0.074-0.257,0.129-0.369,0.161
					c-0.095,0.033-0.211,0.071-0.323,0.108c-0.083,0.033-0.145,0.07-0.216,0.107c-0.066,0.037-0.133,0.066-0.187,0.104
					c-0.045,0.038-0.111,0.066-0.178,0.108c-0.063,0.033-0.142,0.066-0.225,0.104c-0.265,0.107-0.538,0.22-0.816,0.344
					c-0.29,0.125-0.601,0.273-0.945,0.448c-0.277,0.145-0.53,0.261-0.767,0.348c-0.24,0.088-0.477,0.187-0.685,0.291
					c-0.058,0-0.111,0.008-0.166,0.024c-0.054,0.017-0.107,0.046-0.157,0.079c-0.436,0.145-0.875,0.311-1.335,0.506
					c-0.452,0.194-0.949,0.414-1.488,0.663c-0.563,0.249-1.078,0.456-1.547,0.635c-0.468,0.178-0.933,0.318-1.385,0.427
					c-0.406,0.104-0.916,0.183-1.513,0.236c-0.605,0.054-1.311,0.083-2.119,0.083l-1.206,0.05c-1.767-0.071-3.375-0.232-4.81-0.478
					c-1.435-0.244-2.703-0.584-3.802-1.007c-1.156-0.46-2.185-1.008-3.08-1.642c-0.9-0.639-1.659-1.344-2.276-2.123
					c-0.643-0.809-1.19-1.684-1.646-2.62c-0.46-0.934-0.816-1.937-1.082-2.994c-0.198-1.023-0.353-2.109-0.473-3.258
					c-0.115-1.153-0.207-2.396-0.257-3.74c0-0.813,0.046-1.604,0.142-2.384c0.087-0.775,0.231-1.514,0.427-2.218
					c0.207-0.709,0.473-1.394,0.783-2.044c0.307-0.651,0.672-1.265,1.107-1.829c0.394-0.601,0.846-1.177,1.339-1.721
					c0.497-0.551,1.074-1.069,1.725-1.563c0.124-0.07,0.262-0.162,0.398-0.266c0.128-0.104,0.253-0.211,0.36-0.319
					c0.054-0.07,0.107-0.124,0.153-0.161c0.059-0.033,0.125-0.083,0.207-0.153c0.046-0.042,0.108-0.083,0.162-0.137
					c0.046-0.05,0.112-0.096,0.157-0.133c1.746-1.302,3.752-2.293,6.024-2.962c2.268-0.674,4.801-1.01,7.587-1.01
					c0.692,0,1.418,0.027,2.169,0.081c0.754,0.054,1.546,0.128,2.384,0.238c0.261,0.035,0.534,0.07,0.8,0.105
					c0.266,0.036,0.535,0.069,0.805,0.104c0.506,0.07,1.016,0.135,1.505,0.187c0.502,0.054,0.991,0.135,1.472,0.236
					c0.432,0.039,0.775,0.16,1.049,0.375c0.266,0.21,0.535,0.421,0.8,0.635c0.274,0.248,0.564,0.477,0.867,0.69L309.552,74.979
					L309.552,74.979z M348.877,103.78L348.877,103.78c-0.609,0.751-0.962,1.477-1.497,2.197c-0.787-0.145-1.488-0.244-2.098-0.298
					c-0.605-0.055-1.182-0.079-1.725-0.079c-0.353,0-0.771,0.017-1.252,0.054c-0.494,0.033-1.141,0.12-1.949,0.266
					c-0.386-0.713-0.783-1.443-1.198-2.189c-0.423-0.746-0.857-1.571-1.322-2.458c-0.244-0.428-0.48-0.867-0.705-1.307
					c-0.231-0.447-0.468-0.899-0.713-1.368c-0.249-0.423-0.477-0.857-0.709-1.302c-0.232-0.447-0.469-0.883-0.713-1.31
					c-0.432-0.821-0.816-1.543-1.148-2.164c-0.344-0.622-0.651-1.17-0.921-1.63h-10.841c-0.158,0.356-0.336,0.763-0.527,1.231
					c-0.182,0.46-0.401,0.995-0.646,1.597c-0.27,0.717-0.552,1.434-0.833,2.168c-0.282,0.729-0.568,1.451-0.875,2.16
					c-0.295,0.713-0.556,1.339-0.779,1.869c-0.236,0.539-0.444,1.037-0.635,1.497c0,0,0,0.029,0,0.079c0,0.054,0,0.095,0,0.137
					c0,0,0,0.008,0,0.024s0,0.05,0,0.083s0,0.079,0,0.133c0,0.05,0.013,0.1,0.037,0.133c0,0.07,0.009,0.133,0.021,0.187
					c0.012,0.054,0.037,0.096,0.066,0.133c0.078,0.107,0.253,0.178,0.521,0.216c0.27,0.033,0.614,0.054,1.021,0.054l-0.046,2.238
					c-0.809-0.104-1.479-0.165-2.002-0.187c-0.535-0.017-1.012-0.024-1.447-0.024c-0.249,0-0.58,0.008-1.016,0.024
					c-0.436,0.021-1.049,0.083-1.861,0.187c-0.138-0.281-0.229-0.46-0.27-0.53c-0.042-0.07-0.059-0.129-0.059-0.162
					c-0.054-0.074-0.111-0.157-0.183-0.265c-0.066-0.108-0.153-0.286-0.27-0.535c0.764-1.211,1.401-2.288,1.916-3.233
					c0.51-0.941,0.966-1.846,1.376-2.695c0.461-0.821,0.875-1.613,1.24-2.38c0.36-0.767,0.68-1.468,0.953-2.106
					c0.29-0.604,0.68-1.517,1.157-2.728c0.477-1.211,1.09-2.687,1.841-4.433c1.173-2.74,2.061-5.124,2.645-7.16
					c0.593-2.027,0.9-3.702,0.929-5.019c0-0.037,0-0.072-0.017-0.109c-0.012-0.035-0.037-0.068-0.058-0.102
					c0-0.042-0.013-0.066-0.025-0.085c-0.017-0.017-0.028-0.044-0.058-0.077c0-0.037-0.013-0.072-0.025-0.111
					c-0.012-0.031-0.028-0.05-0.058-0.05c-0.054-0.106-0.207-0.312-0.443-0.616c-0.245-0.303-0.726-0.953-1.427-1.948
					c1.058-0.038,1.841-0.081,2.359-0.135c0.51-0.052,0.953-0.096,1.335-0.135h0.046h0.037c0.382-0.035,0.792-0.068,1.256-0.108
					c0.456-0.031,1.032-0.102,1.708-0.209c0.245,0.78,0.635,1.826,1.174,3.124c0.543,1.298,1.231,2.932,2.073,4.889
					c0.862,1.952,1.679,3.772,2.45,5.447c0.771,1.675,1.521,3.188,2.26,4.544c0.058,0.033,0.24,0.36,0.58,0.987
					c0.344,0.621,0.854,1.592,1.529,2.91c0.622,1.206,1.174,2.26,1.659,3.15c0.484,0.892,0.896,1.617,1.227,2.189
					c0.315,0.539,0.639,1.058,0.971,1.575c0.319,0.519,0.667,1.012,1.016,1.472c0.319,0.428,0.613,0.784,0.887,1.066
					c0.27,0.285,0.539,0.518,0.813,0.696c0.107,0.037,0.231,0.083,0.368,0.133c0.129,0.054,0.319,0.1,0.561,0.132
					c0.244,0.038,0.547,0.071,0.92,0.108C347.84,103.66,348.309,103.71,348.877,103.78L348.877,103.78z M332.646,90.124
					L332.646,90.124l-0.614,0.431c-0.207-0.502-0.484-1.069-0.813-1.712c-0.319-0.639-0.688-1.389-1.095-2.243
					c-0.265-0.605-0.538-1.182-0.804-1.733c-0.273-0.556-0.548-1.119-0.813-1.683c-0.137-0.286-0.273-0.572-0.411-0.858
					c-0.128-0.282-0.273-0.568-0.401-0.854c-0.22-0.497-0.423-0.949-0.631-1.363c-0.207-0.407-0.39-0.792-0.551-1.148
					c-0.104,0.356-0.229,0.721-0.365,1.099c-0.137,0.373-0.266,0.791-0.397,1.256c-0.175,0.53-0.345,1.091-0.535,1.684
					c-0.195,0.584-0.377,1.165-0.568,1.732c-0.107,0.286-0.203,0.568-0.286,0.854c-0.074,0.286-0.174,0.572-0.281,0.854
					c-0.166,0.572-0.312,1.091-0.448,1.551c-0.133,0.465-0.27,0.892-0.406,1.281h9.42V90.124z"/>
				<path fill="#982620" d="M389.826,105.269c-0.024,0.021-0.054,0.042-0.083,0.083c-2.181-0.331-4.506-0.655-6.691-0.216
					c-0.298-2.313-0.547-4.378-0.754-6.198c-0.203-1.812-0.386-3.507-0.552-5.07c-0.025-0.323-0.046-0.643-0.059-0.966
					c-0.012-0.319-0.037-0.622-0.058-0.908c-0.054-0.638-0.104-1.252-0.146-1.841c-0.041-0.589-0.078-1.165-0.095-1.737
					c-0.029-0.211-0.054-0.427-0.066-0.643c-0.009-0.211-0.033-0.423-0.059-0.638c-0.028-0.643-0.058-1.281-0.082-1.924
					c-0.029-0.643-0.046-1.298-0.075-1.978c0-0.071,0-0.142,0-0.216c0-0.066,0-0.137,0-0.212c-0.033-0.066-0.05-0.141-0.05-0.211
					c0-0.075,0-0.142,0-0.212c-0.021,0.104-0.058,0.199-0.095,0.29c-0.046,0.088-0.075,0.171-0.104,0.241
					c-0.024,0.104-0.062,0.207-0.095,0.294c-0.05,0.092-0.079,0.17-0.108,0.24c-0.273,0.747-0.543,1.48-0.813,2.189
					c-0.273,0.713-0.551,1.405-0.854,2.085c-0.295,0.639-0.635,1.377-1.037,2.215c-0.386,0.837-0.816,1.758-1.272,2.753
					c-0.344,0.779-0.726,1.55-1.124,2.297c-0.39,0.75-0.787,1.479-1.193,2.188c-0.245,0.427-0.489,0.846-0.729,1.257
					c-0.245,0.406-0.485,0.808-0.73,1.202c-0.19,0.248-0.36,0.501-0.526,0.746c-0.161,0.253-0.327,0.502-0.489,0.75
					c-0.431,0.568-0.92,1.269-1.479,2.11c-0.556,0.834-1.273,1.862-2.165,3.072c-1.09-1.638-1.985-3.026-2.687-4.167
					c-0.7-1.14-1.313-2.102-1.828-2.885c-0.48-0.821-1.016-1.75-1.601-2.778c-0.58-1.036-1.198-2.155-1.845-3.366
					c-0.705-1.244-1.331-2.413-1.891-3.499c-0.552-1.087-1.062-2.09-1.521-3.019c-0.261-0.605-0.563-1.235-0.892-1.898
					c-0.327-0.655-0.65-1.344-0.979-2.057c-0.021,0.464-0.033,0.937-0.058,1.418c-0.013,0.484-0.046,1.003-0.1,1.575
					c-0.024,0.643-0.054,1.272-0.083,1.898c-0.024,0.622-0.05,1.253-0.079,1.896c-0.028,0.643-0.054,1.28-0.082,1.924
					c-0.029,0.638-0.055,1.28-0.075,1.923c-0.063,1.281-0.116,2.409-0.166,3.392c-0.062,0.979-0.095,1.824-0.128,2.537
					c0,0.676,0.05,1.314,0.145,1.924c0.096,0.602,0.241,1.19,0.432,1.758c0,0,0.017,0.009,0.083,0.029
					c0.05,0.021,0.111,0.046,0.203,0.079c0,0,0.004,0.013,0.033,0.029c0.033,0.017,0.045,0.024,0.045,0.024
					c0.059,0.037,0.1,0.066,0.142,0.083c0.041,0.017,0.074,0.029,0.1,0.029c0.19,0.104,0.443,0.203,0.771,0.29
					c0.328,0.091,0.821,0.207,1.501,0.348l-1.09,1.974c-1.982-0.547-3.4-0.506-5.402-0.211c-0.112-0.07-0.191-0.125-0.24-0.162
					c-0.063-0.037-0.108-0.07-0.158-0.104c-0.033-0.037-0.087-0.07-0.17-0.107c-0.083-0.033-0.257-0.125-0.522-0.266
					c0-0.112,0-0.203,0.017-0.294c0.013-0.092,0.033-0.188,0.063-0.295c0,0,0-0.021,0-0.054c0-0.037,0-0.054,0-0.054
					c0.05-0.356,0.104-0.726,0.141-1.12c0.033-0.394,0.1-0.854,0.183-1.393c0.107-0.709,0.216-1.521,0.319-2.43
					c0.116-0.908,0.232-1.948,0.369-3.126c0.137-1.14,0.248-2.33,0.344-3.578s0.183-2.529,0.266-3.843
					c0.107-1.356,0.19-2.683,0.249-3.98c0.05-1.302,0.078-2.554,0.078-3.769c0-1.141-0.07-2.127-0.203-2.965
					c-0.141-0.837-0.331-1.501-0.572-2.002c-0.107-0.249-0.207-0.465-0.303-0.643c-0.095-0.179-0.194-0.336-0.311-0.478
					c-0.104-0.145-0.199-0.271-0.303-0.375c-0.091-0.107-0.194-0.178-0.307-0.213c-0.319-0.146-0.556-0.243-0.705-0.295
					c-0.149-0.056-0.266-0.083-0.344-0.083l-0.526-0.854c0-0.035,0-0.079,0-0.133s0-0.098,0-0.133c0-0.037,0.004-0.081,0.017-0.135
					c0.021-0.052,0.037-0.096,0.07-0.133c0-0.07,0-0.16,0-0.265c0-0.108,0-0.251,0-0.431c0.427,0,0.729,0,0.903,0
					c0.175,0,0.332,0.021,0.469,0.056h0.046c0.028,0,0.041,0,0.041,0c0.129,0,0.236,0,0.319,0s0.162,0,0.245,0
					c0.054,0,0.111,0,0.178,0c0.075,0,0.157,0,0.266,0c0.083,0,0.153-0.012,0.224-0.027c0.075-0.017,0.133-0.029,0.187-0.029
					s0.112,0,0.183,0c0.066,0,0.146,0,0.224,0c0.29-0.035,0.659-0.077,1.091-0.131c0.436-0.054,1.016-0.187,1.745-0.402
					c0.842,1.853,1.592,3.463,2.234,4.834c0.651,1.372,1.257,2.628,1.824,3.769c0.539,1.103,1.182,2.342,1.903,3.71
					c0.734,1.373,1.538,2.841,2.4,4.403c1.024,1.933,2.11,3.855,3.242,5.801c1.136,1.939,2.317,3.893,3.541,5.85
					c0.56-0.962,1.095-1.907,1.601-2.832c0.497-0.924,0.995-1.853,1.479-2.777c0.456-0.929,0.888-1.854,1.294-2.778
					c0.414-0.924,0.792-1.869,1.136-2.827c0.432-1.041,0.821-1.99,1.157-2.86c0.335-0.875,0.659-1.684,0.962-2.43
					c0.294-0.718,0.567-1.435,0.808-2.164c0.241-0.734,0.448-1.435,0.614-2.11c0.183-0.714,0.336-1.473,0.46-2.272
					s0.224-1.646,0.307-2.535c0-0.07-0.013-0.127-0.021-0.164c-0.013-0.035-0.037-0.068-0.063-0.105
					c0-0.035-0.008-0.064-0.017-0.079c-0.017-0.019-0.041-0.043-0.066-0.08c-0.028,0-0.045-0.011-0.058-0.027
					c-0.017-0.019-0.033-0.046-0.063-0.081c-0.033-0.033-0.062-0.063-0.104-0.081c-0.041-0.017-0.074-0.043-0.096-0.08
					c0,0-0.012-0.009-0.028-0.023c-0.013-0.017-0.029-0.028-0.059-0.028c-0.083-0.071-0.174-0.168-0.277-0.295
					c-0.112-0.122-0.262-0.311-0.452-0.56c0.245-0.319,0.39-0.518,0.452-0.587c0.054-0.07,0.095-0.124,0.116-0.162
					c0.024-0.033,0.066-0.079,0.133-0.13c0.041-0.054,0.153-0.191,0.314-0.4c0.568,0.139,1.074,0.247,1.526,0.319
					c0.439,0.071,0.883,0.108,1.318,0.108c0.265,0,0.634-0.037,1.077-0.108c0.444-0.072,1.107-0.234,2.003-0.479v2.187
					c0,1.035,0.037,2.227,0.1,3.578c0.074,1.352,0.161,2.849,0.27,4.49c0.137,1.638,0.24,3.118,0.327,4.432
					c0.083,1.318,0.133,2.459,0.158,3.417c0.028,0.787,0.045,1.55,0.082,2.301c0.025,0.746,0.046,1.438,0.079,2.081
					c0,0.356,0.017,0.688,0.042,0.987c0.028,0.302,0.041,0.617,0.041,0.937c0.083,0.888,0.183,1.725,0.307,2.509
					c0.112,0.787,0.273,1.533,0.465,2.247c0.133,0.604,0.311,1.11,0.526,1.521c0.216,0.41,0.473,0.742,0.771,0.986
					c0.132,0.107,0.34,0.199,0.609,0.266c0.265,0.074,0.58,0.145,0.933,0.216C390.199,104.083,390.602,104.755,389.826,105.269
					L389.826,105.269z M428.467,103.855L428.467,103.855c-0.613,0.746-0.962,1.476-1.501,2.192
					c-0.787-0.145-1.479-0.244-2.094-0.294c-0.609-0.058-1.186-0.083-1.725-0.083c-0.348,0-0.767,0.017-1.26,0.054
					c-0.485,0.033-1.141,0.125-1.944,0.266c-0.382-0.709-0.784-1.442-1.203-2.189c-0.418-0.75-0.854-1.566-1.31-2.458
					c-0.249-0.432-0.489-0.862-0.718-1.306c-0.228-0.448-0.468-0.9-0.713-1.368c-0.236-0.424-0.48-0.863-0.705-1.307
					c-0.231-0.443-0.468-0.879-0.713-1.31c-0.431-0.817-0.816-1.538-1.152-2.16c-0.34-0.622-0.643-1.169-0.912-1.63H401.68
					c-0.161,0.356-0.336,0.763-0.526,1.231c-0.195,0.46-0.41,0.995-0.651,1.601c-0.269,0.713-0.547,1.431-0.833,2.164
					c-0.29,0.729-0.572,1.451-0.875,2.16c-0.298,0.717-0.56,1.339-0.787,1.87c-0.162,0.373-0.635,1.186-0.635,1.579
					c0,0.245-0.017,0.635,0.129,0.825c0.078,0.107,0.253,0.179,0.526,0.212c0.27,0.037,0.605,0.058,1.016,0.058l0.157,1.974
					c0,0.091-0.124,0.161-0.207,0.266c-0.805-0.104-1.472-0.166-2.002-0.187c-0.527-0.017-1.008-0.025-1.439-0.025
					c-0.248,0-0.589,0.009-1.016,0.025c-0.436,0.021-1.062,0.082-1.865,0.187c-0.137-0.282-0.232-0.461-0.266-0.531
					c-0.046-0.07-0.066-0.128-0.066-0.161c-0.05-0.071-0.107-0.158-0.178-0.266c-0.071-0.108-0.149-0.286-0.266-0.535
					c0.755-1.206,1.393-2.288,1.907-3.233c0.514-0.941,0.974-1.841,1.381-2.695c0.464-0.816,0.874-1.612,1.239-2.376
					c0.36-0.771,0.68-1.472,0.949-2.114c0.303-0.605,0.685-1.509,1.161-2.724c0.473-1.211,1.09-2.687,1.845-4.432
					c1.165-2.745,2.044-5.125,2.637-7.16c0.598-2.032,0.908-3.703,0.933-5.021c0-0.035-0.004-0.068-0.017-0.105
					c-0.017-0.035-0.028-0.072-0.062-0.107c0-0.033-0.009-0.061-0.021-0.079c-0.017-0.019-0.033-0.046-0.066-0.081
					c0-0.035,0-0.068-0.009-0.107c-0.021-0.033-0.041-0.052-0.066-0.052c-0.054-0.105-0.203-0.312-0.439-0.616
					c-0.253-0.303-0.722-0.951-1.426-1.95c1.053-0.035,1.841-0.077,2.351-0.131c0.519-0.054,0.966-0.099,1.339-0.135
					c0.025,0,0.05,0,0.05,0h0.033c0.377-0.033,0.796-0.072,1.261-0.107c0.46-0.033,1.028-0.104,1.704-0.211
					c0.236,0.783,0.634,1.826,1.177,3.122c0.544,1.3,1.231,2.934,2.065,4.891c0.87,1.957,1.691,3.772,2.462,5.447
					c0.771,1.675,1.514,3.188,2.256,4.54c0.041,0.037,0.244,0.369,0.58,0.991c0.34,0.626,0.842,1.592,1.526,2.91
					c0.622,1.206,1.173,2.26,1.662,3.151c0.481,0.891,0.892,1.621,1.211,2.188c0.34,0.539,0.659,1.062,0.979,1.575
					c0.319,0.519,0.659,1.008,1.012,1.473c0.327,0.427,0.626,0.783,0.896,1.069c0.27,0.282,0.539,0.514,0.813,0.692
					c0.107,0.033,0.228,0.079,0.369,0.133c0.128,0.054,0.318,0.1,0.567,0.133c0.236,0.037,0.548,0.074,0.908,0.107
					C427.431,103.73,427.899,103.78,428.467,103.855L428.467,103.855z M412.223,90.124L412.223,90.124l-0.601,0.431
					c-0.216-0.502-0.489-1.069-0.813-1.712c-0.328-0.639-0.688-1.389-1.091-2.243c-0.273-0.605-0.547-1.182-0.82-1.733
					c-0.266-0.556-0.539-1.119-0.805-1.683c-0.141-0.286-0.273-0.572-0.402-0.858c-0.145-0.282-0.273-0.568-0.414-0.854
					c-0.216-0.497-0.423-0.949-0.631-1.363c-0.199-0.407-0.386-0.792-0.547-1.148c-0.108,0.356-0.229,0.721-0.365,1.099
					c-0.128,0.373-0.273,0.791-0.402,1.256c-0.161,0.53-0.34,1.091-0.53,1.684c-0.187,0.584-0.377,1.165-0.568,1.732
					c-0.111,0.286-0.198,0.568-0.286,0.854c-0.078,0.286-0.174,0.572-0.281,0.854c-0.162,0.572-0.315,1.091-0.443,1.551
					c-0.138,0.465-0.274,0.892-0.411,1.281h9.411V90.124L412.223,90.124z M449.325,72.018c-0.137-0.18-0.216-0.286-0.244-0.323
					c-0.029-0.035,0.017,0.021,0.12,0.16c0,0.039-0.05-0.025-0.141-0.187c-0.092-0.158-0.253-0.365-0.465-0.609
					c-0.676,0.139-1.252,0.257-1.7,0.342c-0.464,0.089-0.883,0.155-1.265,0.188c-0.19,0-0.385,0-0.593,0
					c-0.198,0-0.397-0.017-0.584-0.054c-0.299,0-0.602-0.019-0.916-0.054c-0.308-0.033-0.644-0.085-0.995-0.16
					c-0.361,0.841-0.485,1.378-0.485,2.351c0.464,0,0.816,0.008,1.062,0.028c0.24,0.015,0.468,0.061,0.709,0.131
					c0,0,0.033,0.008,0.062,0.029c0.021,0.015,0.046,0.024,0.079,0.024c0.129,0.037,0.245,0.133,0.34,0.292
					c0.096,0.162,0.146,0.33,0.146,0.511c-0.033,0.924-0.245,1.985-0.647,3.176c-0.41,1.193-0.99,2.504-1.749,3.926
					c-0.319,0.643-0.688,1.302-1.091,1.978c-0.41,0.676-0.87,1.394-1.389,2.136c-0.506,0.713-0.986,1.393-1.431,2.031
					c-0.451,0.643-0.862,1.215-1.239,1.712c-0.029,0.033-0.063,0.079-0.107,0.133c-0.038,0.054-0.083,0.096-0.146,0.133
					c-0.129,0.212-0.257,0.41-0.382,0.589c-0.12,0.174-0.236,0.336-0.34,0.477c-0.924-1.778-1.915-3.549-2.964-5.311
					c-1.054-1.767-2.152-3.554-3.288-5.369c-0.979-1.46-1.985-2.948-3.019-4.461c-1.049-1.514-2.192-3.091-3.437-4.731
					c-0.842,0.183-1.492,0.303-1.986,0.375c-0.493,0.074-0.841,0.124-1.061,0.164c-0.183,0.035-0.424,0.05-0.705,0.05
					c-0.286,0-0.598,0-0.954,0c-0.107,0-0.22,0-0.327,0s-0.212,0-0.327,0c-0.046,0-0.112,0-0.175,0c-0.074,0-0.137-0.015-0.228-0.05
					c-0.191,0-0.378,0-0.568,0c-0.183,0-0.397,0-0.597,0l0.194,2.133c0.075,0,0.149,0.008,0.199,0.026
					c0.054,0.021,0.129,0.027,0.203,0.027c0.054,0,0.107,0,0.166,0c0.046,0,0.12,0,0.203,0c0.054,0,0.107,0.008,0.166,0.029
					c0.054,0.015,0.124,0.024,0.194,0.024c0.059,0,0.112,0.009,0.166,0.029c0.054,0.017,0.107,0.022,0.157,0.022
					c0.033,0,0.063,0.009,0.088,0.027c0.028,0.021,0.074,0.031,0.074,0.031s0.013,0,0.037,0c0,0,0.025,0,0.046,0
					c0.029,0,0.058,0.004,0.107,0.022c0.033,0.021,0.07,0.044,0.096,0.083c0.054,0.031,0.104,0.063,0.149,0.076
					c0.033,0.021,0.1,0.029,0.1,0.029c0.054,0.033,0.095,0.063,0.133,0.081c0.045,0.015,0.078,0.041,0.111,0.081
					c0.323,0.284,0.639,0.576,0.954,0.879c0.307,0.303,0.597,0.63,0.874,0.99c0.071,0.108,0.162,0.221,0.258,0.345
					c0.095,0.124,0.182,0.24,0.265,0.348c0.162,0.212,0.332,0.436,0.511,0.668c0.17,0.232,0.327,0.473,0.464,0.722
					c0.27,0.356,0.526,0.729,0.767,1.123c0.245,0.39,0.494,0.779,0.738,1.169c0.295,0.361,0.597,0.788,0.916,1.286
					c0.303,0.501,0.647,1.053,1.028,1.658c1.348,2.027,2.583,3.918,3.69,5.663c1.115,1.745,2.081,3.379,2.927,4.913
					c0,0.216,0,0.473,0,0.775s0,0.646,0,1.04c0,0.465,0,0.958,0,1.468c0,0.515,0,1.078,0,1.68c0.021,0.609,0.037,0.261,0.037,0.883
					c0,0.626,0,1.235,0,1.845c0,0.602,0,1.12,0,1.551c0,0.423,0,0.817,0,1.174c0.079,0.107,0.125,0.161,0.162,0.161
					c0,0,0-0.021,0-0.054h-0.025c0,0-0.021,0.008-0.021,0.021c0,0.021,0,0.066,0,0.137c0.063,0.033,0.104,0.07,0.129,0.108
					c0.028,0.033,0.058,0.07,0.074,0.107c0,0,0,0.009,0,0.025s0,0.024,0,0.024c0.063,0.033,0.12,0.1,0.19,0.19
					c0.066,0.087,0.162,0.203,0.262,0.345c0.593-0.212,1.078-0.345,1.464-0.398c0.377-0.054,0.688-0.083,0.929-0.083
					c0.244,0,0.521,0.009,0.837,0.029c0.307,0.017,0.651,0.063,1.032,0.133c0.137,0,0.27,0.017,0.402,0.058
					c0.141,0.029,0.262,0.05,0.369,0.05c0.24,0.033,0.51,0.079,0.788,0.133c0.281,0.054,0.621,0.133,0.994,0.24
					c0-0.141,0-0.257-0.017-0.348c-0.021-0.087-0.021-0.17-0.021-0.241c0,0,0-0.008,0-0.024c0-0.021-0.017-0.05-0.037-0.083
					c0,0,0-0.008,0-0.024s0-0.046,0-0.083c0,0,0.004-0.005,0.017-0.025c0.009-0.017,0.033-0.078,0.058-0.187
					c0-0.07,0.009-0.211,0.029-0.427c0.009-0.216,0.013-0.515,0.013-0.908c-0.676,0-1.174-0.046-1.501-0.133
					c-0.323-0.087-0.552-0.261-0.692-0.506c-0.187-0.394-0.315-0.775-0.377-1.152c-0.075-0.373-0.108-0.738-0.108-1.091v-7.159
					c0.676-0.854,1.273-1.617,1.791-2.297c0.511-0.676,0.941-1.244,1.298-1.704c0.373-0.539,0.862-1.281,1.48-2.219
					c0.605-0.945,1.326-2.098,2.164-3.449c0.166-0.282,0.336-0.572,0.514-0.854c0.175-0.286,0.357-0.589,0.548-0.908
					c0.107-0.249,0.224-0.489,0.344-0.722c0.125-0.232,0.236-0.469,0.349-0.722c0.187-0.39,0.373-0.763,0.547-1.119
					c0.179-0.36,0.345-0.713,0.502-1.069c0.107-0.249,0.22-0.489,0.327-0.722c0.104-0.232,0.212-0.473,0.323-0.722
					c0.299-0.605,0.548-1.156,0.755-1.658c0.203-0.495,0.373-0.943,0.506-1.333c0.24-0.499,0.402-0.897,0.485-1.202
					C449.284,72.383,449.325,72.157,449.325,72.018L449.325,72.018z"/>
				<path fill="#982620" d="M454.927,105.646l-0.195-27.592c-0.021-0.892-0.054-1.621-0.149-2.189
					c-0.095-0.571-0.257-0.98-0.468-1.233c-0.195-0.176-0.398-0.329-0.639-0.451c-0.257-0.127-0.519-0.206-0.825-0.243
					c-0.933-1.146-0.688-1.492,0.24-2.189c0.162,0,0.328,0,0.469,0c0.149,0,0.29,0.021,0.436,0.054c0.157,0,0.29,0,0.402,0
					c0.107,0,0.19,0,0.236,0c0.083,0,0.178,0,0.298,0c0.1,0,0.199,0,0.312,0c0.083,0,0.161-0.011,0.244-0.025
					c0.083-0.021,0.166-0.029,0.249-0.029c0.054,0,0.12,0,0.207,0c0.07,0,0.153,0,0.236,0c0.299-0.033,0.685-0.079,1.157-0.13
					c0.477-0.054,1.103-0.191,1.891-0.4c0.298,0.786,0.352,0.612,0.729,1.228v17.679h-1.422v-1.385h1.422c0,0.493,0,1.04,0,1.629
					s0.013,1.198,0.037,1.841c0,0.676,0,1.008,0,1.791c0,0.784,0,1.604,0,2.459c0,0.074,0,0.153,0,0.244c0,0.083,0,0.166,0,0.236
					c0,0.821,0.236,6.617,0.722,6.861l1.488,0.771c0.282,0.124,0.402,1.202,0.722,1.202L454.927,105.646L454.927,105.646z
					 M492.145,97.761L492.145,97.761c-0.302,1.248-0.514,2.172-0.634,2.777s-0.22,1.124-0.303,1.547
					c-0.029,0.037-0.041,0.074-0.041,0.107s-0.013,0.092-0.038,0.158c0,0,0,0.008,0,0.028s0,0.029,0,0.029
					c0,0.033-0.012,0.07-0.021,0.104c-0.013,0.037-0.024,0.054-0.024,0.054c0,0.075-0.009,0.125-0.021,0.162
					c-0.008,0.037-0.017,0.074-0.017,0.107c-0.058,0.395-0.124,0.809-0.207,1.257c-0.07,0.443-0.187,1.003-0.319,1.683h-21.231
					c-0.024-1.426-0.046-2.877-0.083-4.353c-0.024-1.48-0.062-3.094-0.116-4.839c-0.024-0.892-0.054-1.771-0.078-2.646
					c-0.033-0.87-0.042-1.479-0.042-2.371c-0.028-0.892-0.054-1.774-0.078-2.646c-0.033-0.87-0.059-1.749-0.083-2.641
					c-0.033-1.783-0.066-3.358-0.108-4.727c-0.037-1.376-0.07-2.558-0.1-3.557c0-0.353-0.017-0.701-0.058-1.041
					s-0.12-0.685-0.22-1.041c-0.029-0.066-0.054-0.124-0.058-0.161c-0.021-0.033-0.025-0.087-0.025-0.162
					c-0.083-0.174-0.161-0.344-0.224-0.506c-0.066-0.159-0.158-0.311-0.27-0.454c-0.187-0.176-0.386-0.336-0.58-0.477
					c-0.208-0.143-0.457-0.253-0.759-0.323c-0.668-1.082-0.676-1.237,0.091-2.243c2.513,0.286,4.108-0.429,6.488-0.429
					c0.108,0,0.257,0,0.443,0c0,0.396,0,0.777,0,1.15s0,0.724,0,1.041c0,0.645,0,1.208,0,1.71c0,0.497,0,0.979,0,1.442
					c0,0.676,0,1.344,0,2.003s0,1.326,0,2.002c0.055,0.643,0.083,1.302,0.083,1.978s0,1.373,0,2.082
					c0.025,0.713,0.05,1.426,0.063,2.139c0.013,0.714,0.021,1.427,0.021,2.136c0.025,0.999,0.05,2.147,0.079,3.445
					c0.029,1.302,0.083,2.463,0.157,4.029c0.054,1.638,0.104,2.861,0.129,3.657c0.021,0.804,0.033,1.239,0.033,1.31
					c0,0.038,0.013,0.063,0.024,0.079c0.013,0.021,0.025,0.046,0.025,0.079c0,0,0,0.021,0,0.054c0,0,0.004,0.021,0.017,0.058
					c0.021,0.038,0.021,0.088,0.021,0.158c1.14,0.178,2.239,0.311,3.309,0.402c1.069,0.087,2.106,0.132,3.101,0.132
					c2.413,0,4.32-0.07,5.726-0.215c1.406-0.142,2.285-0.369,2.638-0.692c0.215-0.212,0.427-0.498,0.654-0.851
					c0.212-0.36,0.402-0.75,0.561-1.182c0,0,0.021-0.017,0.041-0.054c0.033-0.037,0.074-0.07,0.12-0.104
					c0.037-0.033,0.059-0.07,0.083-0.107c0.029-0.033,0.046-0.055,0.046-0.055c0.05-0.037,0.165-0.124,0.34-0.265
					C490.876,98.577,491.357,98.258,492.145,97.761z"/>
			</g>
			<g>
				<path fill="#982620" d="M496.904,71.16c-2.798,0-5.062-2.27-5.062-5.061c0-2.792,2.264-5.064,5.062-5.064
					c2.791,0,5.063,2.272,5.063,5.064C501.967,68.89,499.695,71.16,496.904,71.16L496.904,71.16z M496.904,61.521L496.904,61.521
					c-2.524,0-4.581,2.054-4.581,4.579s2.057,4.58,4.581,4.58c2.525,0,4.573-2.055,4.573-4.58S499.43,61.521,496.904,61.521z"/>
			</g>
			<path fill="#982620" d="M494.396,68.94v-5.684h2.521c0.51,0,0.892,0.052,1.161,0.153c0.261,0.102,0.469,0.284,0.622,0.539
				c0.165,0.261,0.244,0.545,0.244,0.856c0,0.406-0.133,0.746-0.394,1.02c-0.266,0.278-0.668,0.452-1.202,0.531
				c0.19,0.095,0.344,0.188,0.443,0.282c0.22,0.197,0.427,0.45,0.622,0.754l0.986,1.549h-0.937l-0.759-1.182
				c-0.216-0.342-0.395-0.605-0.535-0.784c-0.141-0.185-0.266-0.311-0.386-0.383c-0.104-0.069-0.22-0.118-0.336-0.147
				c-0.091-0.015-0.231-0.027-0.423-0.027h-0.87v2.523H494.396L494.396,68.94z M495.155,65.764L495.155,65.764h1.612
				c0.345,0,0.618-0.036,0.805-0.106c0.194-0.073,0.34-0.185,0.439-0.342c0.104-0.158,0.149-0.326,0.149-0.512
				c0-0.268-0.096-0.489-0.29-0.661c-0.195-0.174-0.506-0.261-0.921-0.261h-1.795V65.764z"/>
		</g>
	</g>
</g>
</svg>
